<svg width="71" height="70" viewBox="0 0 71 70" fill="none" xmlns="http://www.w3.org/2000/svg">
<path d="M9.25 35H35.5V39.375H9.25V35ZM4.875 24.0625H26.75V28.4375H4.875V24.0625Z" fill="#14213D"/>
<path d="M65.9479 36.3256L59.3854 21.0131C59.2167 20.6197 58.9364 20.2844 58.579 20.0488C58.2217 19.8132 57.8031 19.6875 57.3751 19.6875H50.8126V15.3125C50.8126 14.7323 50.5821 14.1759 50.1719 13.7657C49.7616 13.3555 49.2052 13.125 48.6251 13.125H13.6251V17.5H46.4376V44.9662C45.4414 45.5458 44.5695 46.3164 43.872 47.2339C43.1746 48.1514 42.6652 49.1976 42.3732 50.3125H28.6269C28.0945 48.2504 26.8283 46.4533 25.0657 45.2581C23.303 44.0628 21.165 43.5514 19.0522 43.8197C16.9395 44.0881 14.9972 45.1178 13.5894 46.7157C12.1815 48.3137 11.4048 50.3703 11.4048 52.5C11.4048 54.6297 12.1815 56.6863 13.5894 58.2843C14.9972 59.8822 16.9395 60.9119 19.0522 61.1803C21.165 61.4486 23.303 60.9372 25.0657 59.7419C26.8283 58.5467 28.0945 56.7496 28.6269 54.6875H42.3732C42.849 56.5649 43.9373 58.23 45.4658 59.4194C46.9943 60.6089 48.8758 61.2547 50.8126 61.2547C52.7493 61.2547 54.6308 60.6089 56.1593 59.4194C57.6878 58.23 58.7761 56.5649 59.2519 54.6875H63.9376C64.5177 54.6875 65.0741 54.457 65.4844 54.0468C65.8946 53.6366 66.1251 53.0802 66.1251 52.5V37.1875C66.125 36.8912 66.0647 36.598 65.9479 36.3256ZM20.1876 56.875C19.3223 56.875 18.4764 56.6184 17.7569 56.1377C17.0375 55.6569 16.4767 54.9737 16.1456 54.1742C15.8145 53.3748 15.7278 52.4951 15.8966 51.6465C16.0654 50.7978 16.4821 50.0183 17.094 49.4064C17.7058 48.7946 18.4854 48.3779 19.334 48.2091C20.1827 48.0403 21.0624 48.1269 21.8618 48.458C22.6612 48.7892 23.3445 49.3499 23.8252 50.0694C24.306 50.7888 24.5626 51.6347 24.5626 52.5C24.5626 53.6603 24.1016 54.7731 23.2812 55.5936C22.4607 56.4141 21.3479 56.875 20.1876 56.875ZM50.8126 24.0625H55.9313L60.6213 35H50.8126V24.0625ZM50.8126 56.875C49.9473 56.875 49.1014 56.6184 48.3819 56.1377C47.6625 55.6569 47.1017 54.9737 46.7706 54.1742C46.4395 53.3748 46.3528 52.4951 46.5216 51.6465C46.6904 50.7978 47.1071 50.0183 47.719 49.4064C48.3308 48.7946 49.1104 48.3779 49.959 48.2091C50.8077 48.0403 51.6874 48.1269 52.4868 48.458C53.2862 48.7892 53.9695 49.3499 54.4502 50.0694C54.931 50.7888 55.1876 51.6347 55.1876 52.5C55.1876 53.6603 54.7266 54.7731 53.9062 55.5936C53.0857 56.4141 51.9729 56.875 50.8126 56.875ZM61.7501 50.3125H59.2519C58.7701 48.4388 57.6801 46.7779 56.1528 45.5903C54.6255 44.4026 52.7473 43.7554 50.8126 43.75V39.375H61.7501V50.3125Z" fill="#14213D"/>
</svg>
