<svg width="43" height="25" viewBox="0 0 43 25" fill="none" xmlns="http://www.w3.org/2000/svg">
<path d="M5.75 21H21.5V23.625H5.75V21ZM3.125 14.4375H16.25V17.0625H3.125V14.4375Z" fill="white" fill-opacity="0.36"/>
<path d="M39.7688 21.7954L35.8313 12.6079C35.7301 12.3718 35.5619 12.1707 35.3475 12.0293C35.1331 11.8879 34.882 11.8125 34.6251 11.8125H30.6876V9.1875C30.6876 8.8394 30.5494 8.50556 30.3032 8.25942C30.0571 8.01328 29.7232 7.875 29.3751 7.875H8.37513V10.5H28.0626V26.9797C27.4649 27.3275 26.9418 27.7899 26.5233 28.3403C26.1048 28.8908 25.7992 29.5186 25.624 30.1875H17.3763C17.0568 28.9503 16.2971 27.872 15.2395 27.1548C14.1819 26.4377 12.8991 26.1308 11.6314 26.2918C10.3638 26.4529 9.19842 27.0707 8.35371 28.0294C7.509 28.9882 7.04297 30.2222 7.04297 31.5C7.04297 32.7778 7.509 34.0118 8.35371 34.9706C9.19842 35.9293 10.3638 36.5471 11.6314 36.7082C12.8991 36.8692 14.1819 36.5623 15.2395 35.8452C16.2971 35.128 17.0568 34.0497 17.3763 32.8125H25.624C25.9095 33.9389 26.5625 34.938 27.4796 35.6517C28.3967 36.3653 29.5256 36.7528 30.6876 36.7528C31.8497 36.7528 32.9786 36.3653 33.8957 35.6517C34.8128 34.938 35.4657 33.9389 35.7513 32.8125H38.5626C38.9107 32.8125 39.2446 32.6742 39.4907 32.4281C39.7369 32.1819 39.8751 31.8481 39.8751 31.5V22.3125C39.8751 22.1347 39.8389 21.9588 39.7688 21.7954ZM12.3126 34.125C11.7935 34.125 11.2859 33.971 10.8543 33.6826C10.4226 33.3942 10.0861 32.9842 9.88745 32.5045C9.68877 32.0249 9.63679 31.4971 9.73807 30.9879C9.83936 30.4787 10.0894 30.011 10.4565 29.6438C10.8236 29.2767 11.2913 29.0267 11.8005 28.9254C12.3097 28.8242 12.8375 28.8761 13.3172 29.0748C13.7968 29.2735 14.2068 29.6099 14.4952 30.0416C14.7837 30.4733 14.9376 30.9808 14.9376 31.5C14.9376 32.1962 14.6611 32.8639 14.1688 33.3562C13.6765 33.8484 13.0088 34.125 12.3126 34.125ZM30.6876 14.4375H33.7589L36.5729 21H30.6876V14.4375ZM30.6876 34.125C30.1685 34.125 29.6609 33.971 29.2293 33.6826C28.7976 33.3942 28.4611 32.9842 28.2625 32.5045C28.0638 32.0249 28.0118 31.4971 28.1131 30.9879C28.2144 30.4787 28.4644 30.011 28.8315 29.6438C29.1986 29.2767 29.6663 29.0267 30.1755 28.9254C30.6847 28.8242 31.2125 28.8761 31.6922 29.0748C32.1718 29.2735 32.5818 29.6099 32.8702 30.0416C33.1587 30.4733 33.3126 30.9808 33.3126 31.5C33.3126 32.1962 33.0361 32.8639 32.5438 33.3562C32.0515 33.8484 31.3838 34.125 30.6876 34.125ZM37.2501 30.1875H35.7513C35.4621 29.0633 34.8081 28.0667 33.8918 27.3542C32.9754 26.6416 31.8485 26.2532 30.6876 26.25V23.625H37.2501V30.1875Z" fill="white" fill-opacity="0.36"/>
</svg>
