<svg width="192" height="18" viewBox="0 0 192 18" fill="none" xmlns="http://www.w3.org/2000/svg">
<path d="M6.615 11.105V16.88H2.135V4.035C2.135 3.73167 2.205 3.42833 2.345 3.125C2.50833 2.82167 2.70667 2.55333 2.94 2.32C3.19667 2.08667 3.465 1.9 3.745 1.76C4.04833 1.59667 4.35167 1.515 4.655 1.515H19.6V5.68H6.615V7.29H19.565V11.105H6.615ZM20.265 11.805V6.59H7.315V6.38H20.3V0.814999H4.655C4.25833 0.814999 3.87333 0.908333 3.5 1.095C3.12667 1.28167 2.77667 1.52667 2.45 1.83C2.14667 2.13333 1.90167 2.48333 1.715 2.88C1.52833 3.25333 1.435 3.63833 1.435 4.035V17.58H7.315V11.805H20.265ZM7.77 12.225V18H0.98V4.035C0.98 3.59167 1.085 3.16 1.295 2.74C1.52833 2.29667 1.82 1.9 2.17 1.55C2.52 1.2 2.905 0.919999 3.325 0.709999C3.76833 0.499999 4.21167 0.394999 4.655 0.394999H20.72V6.8H20.685V12.225H7.77ZM28.3371 11.805H37.1221V12.015H28.3371V11.805ZM27.6371 12.715H37.7871V11.105H27.6371V12.715ZM35.6171 7.29V5.68H23.1221V1.515H37.6121C37.9155 1.515 38.2071 1.59667 38.4872 1.76C38.7905 1.9 39.0588 2.08667 39.2922 2.32C39.5488 2.55333 39.7471 2.82167 39.8871 3.125C40.0505 3.42833 40.1321 3.73167 40.1321 4.035V7.325C40.6921 7.41833 41.2055 7.71 41.6721 8.2C42.1388 8.69 42.3722 9.215 42.3722 9.775V14.36C42.3722 14.6633 42.2905 14.9667 42.1271 15.27C41.9871 15.5733 41.7888 15.8417 41.5321 16.075C41.2988 16.3083 41.0305 16.5067 40.7271 16.67C40.4238 16.81 40.1205 16.88 39.8171 16.88H23.1221V7.29H35.6171ZM22.3871 6.59V17.58H39.8171C40.2138 17.58 40.5988 17.4867 40.9721 17.3C41.3688 17.1133 41.7188 16.8683 42.0222 16.565C42.3488 16.2617 42.6055 15.9233 42.7921 15.55C42.9788 15.1533 43.0721 14.7567 43.0721 14.36V9.775C43.0721 9.16833 42.8505 8.59667 42.4071 8.06C41.9638 7.5 41.4388 7.09167 40.8321 6.835V4.035C40.8321 3.63833 40.7388 3.25333 40.5521 2.88C40.3655 2.48333 40.1088 2.13333 39.7822 1.83C39.4788 1.52667 39.1288 1.28167 38.7321 1.095C38.3588 0.908333 37.9855 0.814999 37.6121 0.814999H22.3871V6.38H34.8821V6.59H22.3871ZM37.6121 0.394999C38.0555 0.394999 38.4871 0.499999 38.9071 0.709999C39.3505 0.919999 39.7471 1.2 40.0972 1.55C40.4471 1.9 40.7271 2.29667 40.9371 2.74C41.1705 3.16 41.2871 3.59167 41.2871 4.035V6.555C41.8938 6.88167 42.4188 7.34833 42.8622 7.955C43.3055 8.53833 43.5271 9.145 43.5271 9.775V14.36C43.5271 14.8033 43.4105 15.2467 43.1772 15.69C42.9672 16.11 42.6871 16.495 42.3371 16.845C41.9871 17.195 41.5905 17.475 41.1471 17.685C40.7038 17.895 40.2605 18 39.8171 18H21.9671V0.394999H37.6121ZM51.59 11.595H52.115V6.8H51.59V11.595ZM50.435 5.68V12.715H60.83V11.105H53.305V7.29H62.86C63.1633 7.29 63.4667 7.37167 63.77 7.535C64.0733 7.675 64.3417 7.86167 64.575 8.095C64.8317 8.32833 65.03 8.59667 65.17 8.9C65.3333 9.18 65.415 9.47167 65.415 9.775V14.36C65.415 14.6633 65.3333 14.9667 65.17 15.27C65.03 15.5733 64.8317 15.8417 64.575 16.075C64.3417 16.3083 64.0733 16.5067 63.77 16.67C63.4667 16.81 63.1633 16.88 62.86 16.88H48.44C48.1367 16.88 47.8333 16.81 47.53 16.67C47.25 16.5067 46.9817 16.3083 46.725 16.075C46.4917 15.8417 46.2933 15.5733 46.13 15.27C45.99 14.9667 45.92 14.6633 45.92 14.36V4.035C45.92 3.73167 45.99 3.42833 46.13 3.125C46.2933 2.82167 46.4917 2.55333 46.725 2.32C46.9817 2.08667 47.25 1.9 47.53 1.76C47.8333 1.59667 48.1367 1.515 48.44 1.515H65.415V5.68H50.435ZM66.115 6.38V0.814999H48.44C48.0433 0.814999 47.6467 0.908333 47.25 1.095C46.8767 1.28167 46.5267 1.52667 46.2 1.83C45.8967 2.13333 45.6517 2.48333 45.465 2.88C45.2783 3.25333 45.185 3.63833 45.185 4.035V14.36C45.185 14.7567 45.2783 15.1533 45.465 15.55C45.6517 15.9233 45.8967 16.2617 46.2 16.565C46.5267 16.8683 46.8767 17.1133 47.25 17.3C47.6467 17.4867 48.0433 17.58 48.44 17.58H62.86C63.2567 17.58 63.6417 17.4867 64.015 17.3C64.4117 17.1133 64.7617 16.8683 65.065 16.565C65.3917 16.2617 65.6483 15.9233 65.835 15.55C66.0217 15.1533 66.115 14.7567 66.115 14.36V9.775C66.115 9.37833 66.0217 8.99333 65.835 8.62C65.6483 8.22333 65.3917 7.885 65.065 7.605C64.7617 7.30167 64.4117 7.05667 64.015 6.87C63.6417 6.68333 63.2567 6.59 62.86 6.59H52.57V11.805H60.095V12.015H51.17V6.38H66.115ZM64.785 6.8C65.275 7.15 65.695 7.59333 66.045 8.13C66.395 8.64333 66.57 9.19167 66.57 9.775V14.36C66.57 14.8033 66.4533 15.2467 66.22 15.69C66.01 16.11 65.73 16.495 65.38 16.845C65.03 17.195 64.6333 17.475 64.19 17.685C63.7467 17.895 63.3033 18 62.86 18H48.44C47.9967 18 47.5533 17.895 47.11 17.685C46.69 17.475 46.305 17.195 45.955 16.845C45.605 16.495 45.3133 16.11 45.08 15.69C44.87 15.2467 44.765 14.8033 44.765 14.36V4.035C44.765 3.59167 44.87 3.16 45.08 2.74C45.3133 2.29667 45.605 1.9 45.955 1.55C46.305 1.2 46.69 0.919999 47.11 0.709999C47.5533 0.499999 47.9967 0.394999 48.44 0.394999H66.57V6.8H64.785ZM93.6772 9.495V7.92L92.3122 9.495H93.6772ZM93.3972 7.465L93.6772 7.185C93.7239 7.13833 93.7822 7.09167 93.8522 7.045C93.9222 6.975 94.0156 6.91667 94.1322 6.87V9.915H91.3322L93.3972 7.465ZM89.8622 10.615H94.8672V6.66C94.8672 6.54333 94.7972 6.42667 94.6572 6.31C94.5406 6.19333 94.3889 6.135 94.2022 6.135C93.9922 6.135 93.7706 6.22833 93.5372 6.415C93.3272 6.60167 93.1289 6.78833 92.9422 6.975L92.8722 7.045L89.8622 10.615ZM99.3822 16.88H94.8672V14.325H87.0272L84.9622 16.88H79.5722L90.5622 2.635C91.0522 2.215 91.7172 1.92333 92.5572 1.76C93.3972 1.59667 94.2489 1.515 95.1122 1.515C96.3722 1.515 97.3989 1.77167 98.1922 2.285C98.9856 2.775 99.3822 3.685 99.3822 5.015V16.88ZM94.1322 17.58H100.117V5.015C100.117 4.22167 99.9889 3.55667 99.7322 3.02C99.4989 2.46 99.1606 2.02833 98.7172 1.725C98.2972 1.39833 97.7722 1.165 97.1422 1.025C96.5356 0.884999 95.8589 0.814999 95.1122 0.814999C94.2256 0.814999 93.3039 0.919999 92.3472 1.13C91.4139 1.34 90.6439 1.70167 90.0372 2.215L78.1722 17.58H85.3122L87.3772 15.025H94.1322V17.58ZM100.572 18H93.6772V15.48H87.5872L85.5222 18H77.2272L89.6872 1.9C90.3406 1.31667 91.1572 0.919999 92.1372 0.709999C93.1406 0.499999 94.1322 0.394999 95.1122 0.394999C95.9056 0.394999 96.6406 0.476666 97.3172 0.639999C97.9939 0.78 98.5656 1.025 99.0322 1.375C99.5222 1.725 99.8956 2.20333 100.152 2.81C100.432 3.39333 100.572 4.12833 100.572 5.015V18ZM107.481 12.715H117.806V1.515H122.391V14.36C122.391 14.6633 122.309 14.9667 122.146 15.27C122.006 15.5733 121.808 15.8417 121.551 16.075C121.318 16.3083 121.049 16.5067 120.746 16.67C120.443 16.81 120.139 16.88 119.836 16.88H105.486C105.183 16.88 104.879 16.81 104.576 16.67C104.296 16.5067 104.028 16.3083 103.771 16.075C103.538 15.8417 103.339 15.5733 103.176 15.27C103.036 14.9667 102.966 14.6633 102.966 14.36V1.515H107.481V12.715ZM108.216 0.814999H102.231V14.36C102.231 14.7567 102.324 15.1533 102.511 15.55C102.698 15.9233 102.943 16.2617 103.246 16.565C103.573 16.8683 103.923 17.1133 104.296 17.3C104.693 17.4867 105.089 17.58 105.486 17.58H119.836C120.233 17.58 120.618 17.4867 120.991 17.3C121.388 17.1133 121.738 16.8683 122.041 16.565C122.368 16.2617 122.624 15.9233 122.811 15.55C122.998 15.1533 123.091 14.7567 123.091 14.36V0.814999H117.106V12.015H108.216V0.814999ZM108.636 11.595H116.686V0.394999H123.546V14.36C123.546 14.8033 123.429 15.2467 123.196 15.69C122.986 16.11 122.706 16.495 122.356 16.845C122.006 17.195 121.609 17.475 121.166 17.685C120.723 17.895 120.279 18 119.836 18H105.486C105.043 18 104.599 17.895 104.156 17.685C103.736 17.475 103.351 17.195 103.001 16.845C102.651 16.495 102.359 16.11 102.126 15.69C101.916 15.2467 101.811 14.8033 101.811 14.36V0.394999H108.636V11.595ZM132.935 16.88V5.68H125.9V1.515H144.555V5.68H137.52V16.88H132.935ZM132.235 17.58H138.22V6.38H145.255V0.814999H125.2V6.38H132.235V17.58ZM131.78 18V6.8H124.745V0.394999H145.675V6.8H138.64V18H131.78ZM153.753 11.595H161.873V6.8H153.753V11.595ZM153.333 6.38H162.258V12.015H153.333V6.38ZM152.598 12.715H162.993V5.68H152.598V12.715ZM165.023 1.515C165.326 1.515 165.63 1.59667 165.933 1.76C166.236 1.9 166.505 2.08667 166.738 2.32C166.995 2.55333 167.193 2.82167 167.333 3.125C167.496 3.42833 167.578 3.73167 167.578 4.035V14.36C167.578 14.6633 167.496 14.9667 167.333 15.27C167.193 15.5733 166.995 15.8417 166.738 16.075C166.505 16.3083 166.236 16.5067 165.933 16.67C165.63 16.81 165.326 16.88 165.023 16.88H150.603C150.3 16.88 149.996 16.81 149.693 16.67C149.413 16.5067 149.145 16.3083 148.888 16.075C148.655 15.8417 148.456 15.5733 148.293 15.27C148.153 14.9667 148.083 14.6633 148.083 14.36V4.035C148.083 3.73167 148.153 3.42833 148.293 3.125C148.456 2.82167 148.655 2.55333 148.888 2.32C149.145 2.08667 149.413 1.9 149.693 1.76C149.996 1.59667 150.3 1.515 150.603 1.515H165.023ZM150.603 0.814999C150.206 0.814999 149.81 0.908333 149.413 1.095C149.04 1.28167 148.69 1.52667 148.363 1.83C148.06 2.13333 147.815 2.48333 147.628 2.88C147.441 3.25333 147.348 3.63833 147.348 4.035V14.36C147.348 14.7567 147.441 15.1533 147.628 15.55C147.815 15.9233 148.06 16.2617 148.363 16.565C148.69 16.8683 149.04 17.1133 149.413 17.3C149.81 17.4867 150.206 17.58 150.603 17.58H165.023C165.42 17.58 165.805 17.4867 166.178 17.3C166.575 17.1133 166.925 16.8683 167.228 16.565C167.555 16.2617 167.811 15.9233 167.998 15.55C168.185 15.1533 168.278 14.7567 168.278 14.36V4.035C168.278 3.63833 168.185 3.25333 167.998 2.88C167.811 2.48333 167.555 2.13333 167.228 1.83C166.925 1.52667 166.575 1.28167 166.178 1.095C165.805 0.908333 165.42 0.814999 165.023 0.814999H150.603ZM165.023 0.394999C165.466 0.394999 165.91 0.499999 166.353 0.709999C166.796 0.919999 167.193 1.2 167.543 1.55C167.893 1.9 168.173 2.29667 168.383 2.74C168.616 3.16 168.733 3.59167 168.733 4.035V14.36C168.733 14.8033 168.616 15.2467 168.383 15.69C168.173 16.11 167.893 16.495 167.543 16.845C167.193 17.195 166.796 17.475 166.353 17.685C165.91 17.895 165.466 18 165.023 18H150.603C150.16 18 149.716 17.895 149.273 17.685C148.853 17.475 148.468 17.195 148.118 16.845C147.768 16.495 147.476 16.11 147.243 15.69C147.033 15.2467 146.928 14.8033 146.928 14.36V4.035C146.928 3.59167 147.033 3.16 147.243 2.74C147.476 2.29667 147.768 1.9 148.118 1.55C148.468 1.2 148.853 0.919999 149.273 0.709999C149.716 0.499999 150.16 0.394999 150.603 0.394999H165.023ZM171.12 12.715H185.61V11.105H173.64C173.337 11.105 173.034 11.035 172.73 10.895C172.45 10.7317 172.182 10.5333 171.925 10.3C171.692 10.0667 171.494 9.81 171.33 9.53C171.19 9.22667 171.12 8.92333 171.12 8.62V4.035C171.12 3.73167 171.19 3.42833 171.33 3.125C171.494 2.82167 171.692 2.55333 171.925 2.32C172.182 2.08667 172.45 1.9 172.73 1.76C173.034 1.59667 173.337 1.515 173.64 1.515H190.195V5.68H175.635V7.29H187.64C187.944 7.29 188.247 7.37167 188.55 7.535C188.854 7.675 189.122 7.86167 189.355 8.095C189.612 8.32833 189.81 8.59667 189.95 8.9C190.114 9.18 190.195 9.47167 190.195 9.775V14.36C190.195 14.6633 190.114 14.9667 189.95 15.27C189.81 15.5733 189.612 15.8417 189.355 16.075C189.122 16.3083 188.854 16.5067 188.55 16.67C188.247 16.81 187.944 16.88 187.64 16.88H171.12V12.715ZM170.385 12.015V17.58H187.64C188.037 17.58 188.422 17.4867 188.795 17.3C189.192 17.1133 189.542 16.8683 189.845 16.565C190.172 16.2617 190.429 15.9233 190.615 15.55C190.802 15.1533 190.895 14.7567 190.895 14.36V9.775C190.895 9.37833 190.802 8.99333 190.615 8.62C190.429 8.22333 190.172 7.885 189.845 7.605C189.542 7.30167 189.192 7.05667 188.795 6.87C188.422 6.68333 188.037 6.59 187.64 6.59H176.335V6.38H190.895V0.814999H173.64C173.244 0.814999 172.847 0.908333 172.45 1.095C172.077 1.28167 171.727 1.52667 171.4 1.83C171.097 2.13333 170.852 2.48333 170.665 2.88C170.479 3.25333 170.385 3.63833 170.385 4.035V8.62C170.385 9.01667 170.479 9.41333 170.665 9.81C170.852 10.1833 171.097 10.5217 171.4 10.825C171.727 11.105 172.077 11.3383 172.45 11.525C172.847 11.7117 173.244 11.805 173.64 11.805H184.945V12.015H170.385ZM169.965 11.595H171.715C171.202 11.2683 170.782 10.8367 170.455 10.3C170.129 9.76333 169.965 9.20333 169.965 8.62V4.035C169.965 3.59167 170.07 3.16 170.28 2.74C170.514 2.29667 170.805 1.9 171.155 1.55C171.505 1.2 171.89 0.919999 172.31 0.709999C172.754 0.499999 173.197 0.394999 173.64 0.394999H191.35V6.8H189.565C190.055 7.15 190.475 7.59333 190.825 8.13C191.175 8.64333 191.35 9.19167 191.35 9.775V14.36C191.35 14.8033 191.234 15.2467 191 15.69C190.79 16.11 190.51 16.495 190.16 16.845C189.81 17.195 189.414 17.475 188.97 17.685C188.527 17.895 188.084 18 187.64 18H169.965V11.595Z" fill="#14213D"/>
</svg>
