<svg width="1201" height="160" viewBox="0 0 1201 160" fill="none" xmlns="http://www.w3.org/2000/svg">
<g clip-path="url(#clip0_91_647)">
<rect x="0.5" width="1200" height="160" rx="10" fill="#14213D"/>
<path d="M18.1546 136.875C16.4011 136.875 14.7815 137.752 13.8063 139.213L10.1563 144.669C9.72671 145.312 9.49827 146.069 9.50002 146.842V155.537C9.4976 156.12 9.69007 156.687 10.0468 157.147C10.4035 157.608 10.9041 157.936 11.4688 158.08L14.8734 158.942C15.1183 160.122 15.7614 161.181 16.6948 161.943C17.6283 162.704 18.7953 163.122 20 163.125C22.4308 163.125 24.4599 161.444 25.0453 159.188H37.2673C37.8526 161.444 39.8818 163.125 42.3125 163.125C44.7433 163.125 46.7724 161.444 47.3578 159.188H48.875C50.3109 159.188 51.5 157.998 51.5 156.562V151.764C51.4983 150.594 51.106 149.459 50.3853 148.537C49.6646 147.616 48.6568 146.961 47.5218 146.678L40.4251 144.873L35.2985 138.762C34.8078 138.173 34.1935 137.698 33.499 137.372C32.8045 137.046 32.0469 136.876 31.2796 136.875H18.1546ZM18.1546 139.5H23.9375V144.75H13.2735L15.9811 140.689V140.648C16.2187 140.291 16.5419 139.999 16.9213 139.798C17.3007 139.598 17.7255 139.495 18.1546 139.5ZM26.5625 139.5H31.2796C32.058 139.5 32.7916 139.844 33.2891 140.444L36.8985 144.75H26.5625V139.5ZM12.125 147.375H39.5235L46.9063 149.22C47.4728 149.361 47.9753 149.689 48.3326 150.15C48.6899 150.612 48.881 151.18 48.875 151.764V156.562H47.3578C46.7724 154.306 44.7433 152.625 42.3125 152.625C39.8818 152.625 37.8526 154.306 37.2673 156.562H25.0453C24.4599 154.306 22.4308 152.625 20 152.625C17.673 152.625 15.7186 154.163 15.0375 156.275L12.125 155.539V147.375ZM20 155.25C21.4661 155.25 22.625 156.409 22.625 157.875C22.625 159.341 21.4661 160.5 20 160.5C18.534 160.5 17.375 159.341 17.375 157.875C17.375 156.409 18.534 155.25 20 155.25ZM42.3125 155.25C43.7786 155.25 44.9375 156.409 44.9375 157.875C44.9375 159.341 43.7786 160.5 42.3125 160.5C40.8465 160.5 39.6875 159.341 39.6875 157.875C39.6875 156.409 40.8465 155.25 42.3125 155.25Z" fill="white" fill-opacity="0.36"/>
<path d="M1117.15 -9.125C1115.4 -9.125 1113.78 -8.24825 1112.81 -6.78744L1109.16 -1.33138C1108.73 -0.68804 1108.5 0.0685587 1108.5 0.842125V9.53744C1108.5 10.1201 1108.69 10.6868 1109.05 11.1475C1109.4 11.6081 1109.9 11.9363 1110.47 12.0798L1113.87 12.9421C1114.12 14.1217 1114.76 15.1812 1115.69 15.9428C1116.63 16.7044 1117.8 17.1218 1119 17.125C1121.43 17.125 1123.46 15.4437 1124.05 13.1875H1136.27C1136.85 15.4437 1138.88 17.125 1141.31 17.125C1143.74 17.125 1145.77 15.4437 1146.36 13.1875H1147.88C1149.31 13.1875 1150.5 11.9984 1150.5 10.5625V5.764C1150.5 4.59422 1150.11 3.45853 1149.39 2.53713C1148.66 1.61574 1147.66 0.96144 1146.52 0.678062L1139.43 -1.12663L1134.3 -7.23762C1133.81 -7.82741 1133.19 -8.30216 1132.5 -8.6283C1131.8 -8.95445 1131.05 -9.12401 1130.28 -9.125H1117.15ZM1117.15 -6.5H1122.94V-1.25H1112.27L1114.98 -5.31087V-5.35156C1115.22 -5.70898 1115.54 -6.0013 1115.92 -6.20188C1116.3 -6.40247 1116.73 -6.50495 1117.15 -6.5ZM1125.56 -6.5H1130.28C1131.06 -6.5 1131.79 -6.15613 1132.29 -5.55631L1135.9 -1.25H1125.56V-6.5ZM1111.13 1.375H1138.52L1145.91 3.22038C1146.47 3.36095 1146.98 3.68853 1147.33 4.15012C1147.69 4.61171 1147.88 5.18033 1147.88 5.764V10.5625H1146.36C1145.77 8.30631 1143.74 6.625 1141.31 6.625C1138.88 6.625 1136.85 8.30631 1136.27 10.5625H1124.05C1123.46 8.30631 1121.43 6.625 1119 6.625C1116.67 6.625 1114.72 8.16325 1114.04 10.2751L1111.13 9.53875V1.375ZM1119 9.25C1120.47 9.25 1121.63 10.4089 1121.63 11.875C1121.63 13.3411 1120.47 14.5 1119 14.5C1117.53 14.5 1116.38 13.3411 1116.38 11.875C1116.38 10.4089 1117.53 9.25 1119 9.25ZM1141.31 9.25C1142.78 9.25 1143.94 10.4089 1143.94 11.875C1143.94 13.3411 1142.78 14.5 1141.31 14.5C1139.85 14.5 1138.69 13.3411 1138.69 11.875C1138.69 10.4089 1139.85 9.25 1141.31 9.25Z" fill="white" fill-opacity="0.36"/>
<path d="M604.75 38H620.5V40.625H604.75V38ZM602.125 31.4375H615.25V34.0625H602.125V31.4375Z" fill="white" fill-opacity="0.36"/>
<path d="M638.769 38.7954L634.831 29.6079C634.73 29.3718 634.562 29.1707 634.348 29.0293C634.133 28.8879 633.882 28.8125 633.625 28.8125H629.688V26.1875C629.688 25.8394 629.549 25.5056 629.303 25.2594C629.057 25.0133 628.723 24.875 628.375 24.875H607.375V27.5H627.063V43.9797C626.465 44.3275 625.942 44.7899 625.523 45.3403C625.105 45.8908 624.799 46.5186 624.624 47.1875H616.376C616.057 45.9503 615.297 44.872 614.239 44.1548C613.182 43.4377 611.899 43.1308 610.631 43.2918C609.364 43.4529 608.198 44.0707 607.354 45.0294C606.509 45.9882 606.043 47.2222 606.043 48.5C606.043 49.7778 606.509 51.0118 607.354 51.9706C608.198 52.9293 609.364 53.5471 610.631 53.7082C611.899 53.8692 613.182 53.5623 614.239 52.8452C615.297 52.128 616.057 51.0497 616.376 49.8125H624.624C624.91 50.9389 625.562 51.938 626.48 52.6517C627.397 53.3653 628.526 53.7528 629.688 53.7528C630.85 53.7528 631.979 53.3653 632.896 52.6517C633.813 51.938 634.466 50.9389 634.751 49.8125H637.563C637.911 49.8125 638.245 49.6742 638.491 49.4281C638.737 49.1819 638.875 48.8481 638.875 48.5V39.3125C638.875 39.1347 638.839 38.9588 638.769 38.7954ZM611.313 51.125C610.793 51.125 610.286 50.971 609.854 50.6826C609.423 50.3942 609.086 49.9842 608.887 49.5045C608.689 49.0249 608.637 48.4971 608.738 47.9879C608.839 47.4787 609.089 47.011 609.456 46.6438C609.824 46.2767 610.291 46.0267 610.801 45.9254C611.31 45.8242 611.838 45.8761 612.317 46.0748C612.797 46.2735 613.207 46.6099 613.495 47.0416C613.784 47.4733 613.938 47.9808 613.938 48.5C613.938 49.1962 613.661 49.8639 613.169 50.3562C612.677 50.8484 612.009 51.125 611.313 51.125ZM629.688 31.4375H632.759L635.573 38H629.688V31.4375ZM629.688 51.125C629.168 51.125 628.661 50.971 628.229 50.6826C627.798 50.3942 627.461 49.9842 627.262 49.5045C627.064 49.0249 627.012 48.4971 627.113 47.9879C627.214 47.4787 627.464 47.011 627.831 46.6438C628.199 46.2767 628.666 46.0267 629.176 45.9254C629.685 45.8242 630.213 45.8761 630.692 46.0748C631.172 46.2735 631.582 46.6099 631.87 47.0416C632.159 47.4733 632.313 47.9808 632.313 48.5C632.313 49.1962 632.036 49.8639 631.544 50.3562C631.052 50.8484 630.384 51.125 629.688 51.125ZM636.25 47.1875H634.751C634.462 46.0633 633.808 45.0667 632.892 44.3542C631.975 43.6416 630.848 43.2532 629.688 43.25V40.625H636.25V47.1875Z" fill="white" fill-opacity="0.36"/>
<path d="M456.75 156H472.5V158.625H456.75V156ZM454.125 149.438H467.25V152.062H454.125V149.438Z" fill="white" fill-opacity="0.36"/>
<path d="M490.769 156.795L486.831 147.608C486.73 147.372 486.562 147.171 486.348 147.029C486.133 146.888 485.882 146.813 485.625 146.812H481.688V144.188C481.688 143.839 481.549 143.506 481.303 143.259C481.057 143.013 480.723 142.875 480.375 142.875H459.375V145.5H479.063V161.98C478.465 162.327 477.942 162.79 477.523 163.34C477.105 163.891 476.799 164.519 476.624 165.188H468.376C468.057 163.95 467.297 162.872 466.239 162.155C465.182 161.438 463.899 161.131 462.631 161.292C461.364 161.453 460.198 162.071 459.354 163.029C458.509 163.988 458.043 165.222 458.043 166.5C458.043 167.778 458.509 169.012 459.354 169.971C460.198 170.929 461.364 171.547 462.631 171.708C463.899 171.869 465.182 171.562 466.239 170.845C467.297 170.128 468.057 169.05 468.376 167.812H476.624C476.91 168.939 477.562 169.938 478.48 170.652C479.397 171.365 480.526 171.753 481.688 171.753C482.85 171.753 483.979 171.365 484.896 170.652C485.813 169.938 486.466 168.939 486.751 167.812H489.563C489.911 167.812 490.245 167.674 490.491 167.428C490.737 167.182 490.875 166.848 490.875 166.5V157.312C490.875 157.135 490.839 156.959 490.769 156.795ZM463.313 169.125C462.793 169.125 462.286 168.971 461.854 168.683C461.423 168.394 461.086 167.984 460.887 167.505C460.689 167.025 460.637 166.497 460.738 165.988C460.839 165.479 461.089 165.011 461.456 164.644C461.824 164.277 462.291 164.027 462.801 163.925C463.31 163.824 463.838 163.876 464.317 164.075C464.797 164.273 465.207 164.61 465.495 165.042C465.784 165.473 465.938 165.981 465.938 166.5C465.938 167.196 465.661 167.864 465.169 168.356C464.677 168.848 464.009 169.125 463.313 169.125ZM481.688 149.438H484.759L487.573 156H481.688V149.438ZM481.688 169.125C481.168 169.125 480.661 168.971 480.229 168.683C479.798 168.394 479.461 167.984 479.262 167.505C479.064 167.025 479.012 166.497 479.113 165.988C479.214 165.479 479.464 165.011 479.831 164.644C480.199 164.277 480.666 164.027 481.176 163.925C481.685 163.824 482.213 163.876 482.692 164.075C483.172 164.273 483.582 164.61 483.87 165.042C484.159 165.473 484.313 165.981 484.313 166.5C484.313 167.196 484.036 167.864 483.544 168.356C483.052 168.848 482.384 169.125 481.688 169.125ZM488.25 165.188H486.751C486.462 164.063 485.808 163.067 484.892 162.354C483.975 161.642 482.848 161.253 481.688 161.25V158.625H488.25V165.188Z" fill="white" fill-opacity="0.36"/>
<path d="M1173 154.833H1169.5V157.167H1173V154.833Z" fill="white" fill-opacity="0.36"/>
<path d="M1159.64 151.532C1161.71 148.146 1164.53 145.283 1167.89 143.167C1169.44 142.184 1171.21 141.596 1173.04 141.453C1174.87 141.311 1176.71 141.619 1178.39 142.35C1179.86 143.045 1181.14 144.088 1182.12 145.388C1183.1 146.689 1183.75 148.209 1184.01 149.817C1184.11 150.365 1184.18 150.89 1184.25 151.403C1185.34 151.58 1186.33 152.14 1187.05 152.982C1187.77 153.824 1188.16 154.893 1188.17 156V163.152C1188.17 163.77 1187.92 164.364 1187.48 164.802C1187.05 165.239 1186.45 165.485 1185.83 165.485V156C1185.83 155.381 1185.59 154.788 1185.15 154.35C1184.71 153.912 1184.12 153.667 1183.5 153.667H1161.65C1159.4 153.67 1157.24 154.564 1155.65 156.154C1154.06 157.744 1153.17 159.9 1153.17 162.148V163H1155.5C1155.99 161.798 1156.91 160.82 1158.08 160.252C1159.25 159.684 1160.58 159.566 1161.83 159.921C1163.08 160.275 1164.16 161.077 1164.85 162.173C1165.55 163.27 1165.82 164.584 1165.6 165.866C1165.39 167.147 1164.72 168.306 1163.71 169.12C1162.69 169.935 1161.42 170.349 1160.12 170.283C1158.82 170.218 1157.6 169.677 1156.67 168.764C1155.75 167.851 1155.2 166.629 1155.11 165.333H1153.17C1152.55 165.333 1151.95 165.087 1151.52 164.65C1151.08 164.212 1150.83 163.619 1150.83 163V162.148C1150.84 159.631 1151.72 157.193 1153.33 155.255C1154.94 153.318 1157.17 152.001 1159.64 151.532ZM1177.67 151.333H1182.41C1182.41 150.972 1182.31 150.598 1182.24 150.167C1182.04 148.885 1181.51 147.676 1180.71 146.655C1179.91 145.634 1178.86 144.835 1177.67 144.333V151.333ZM1175.33 151.333V143.843C1173.16 143.56 1170.95 144.039 1169.08 145.197C1166.53 146.784 1164.33 148.871 1162.62 151.333H1175.33ZM1160.4 168.11C1160.98 168.11 1161.54 167.939 1162.02 167.618C1162.5 167.298 1162.87 166.842 1163.09 166.309C1163.32 165.777 1163.37 165.19 1163.26 164.624C1163.15 164.059 1162.87 163.539 1162.46 163.131C1162.05 162.723 1161.53 162.445 1160.97 162.333C1160.4 162.22 1159.82 162.278 1159.28 162.499C1158.75 162.719 1158.3 163.093 1157.97 163.573C1157.65 164.053 1157.48 164.616 1157.48 165.193C1157.48 165.967 1157.79 166.709 1158.34 167.256C1158.88 167.803 1159.63 168.11 1160.4 168.11Z" fill="white" fill-opacity="0.36"/>
<path d="M1173.97 163C1174.46 161.798 1175.38 160.82 1176.55 160.252C1177.71 159.684 1179.05 159.566 1180.3 159.921C1181.55 160.275 1182.62 161.077 1183.32 162.173C1184.02 163.27 1184.28 164.584 1184.07 165.866C1183.86 167.147 1183.19 168.306 1182.17 169.12C1181.16 169.935 1179.89 170.349 1178.59 170.283C1177.29 170.218 1176.07 169.677 1175.14 168.764C1174.22 167.851 1173.66 166.629 1173.58 165.333H1167.4V165.042C1167.42 164.353 1167.34 163.665 1167.17 163H1173.97ZM1178.83 168.11C1179.41 168.11 1179.97 167.939 1180.45 167.618C1180.93 167.298 1181.31 166.842 1181.53 166.309C1181.75 165.777 1181.81 165.19 1181.69 164.624C1181.58 164.059 1181.3 163.539 1180.9 163.131C1180.49 162.723 1179.97 162.445 1179.4 162.333C1178.84 162.22 1178.25 162.278 1177.72 162.499C1177.18 162.719 1176.73 163.093 1176.41 163.573C1176.09 164.053 1175.92 164.616 1175.92 165.193C1175.92 165.967 1176.22 166.709 1176.77 167.256C1177.32 167.803 1178.06 168.11 1178.83 168.11Z" fill="white" fill-opacity="0.36"/>
<path d="M233.635 43.7135C233.681 43.8796 233.76 44.0351 233.866 44.171C233.972 44.3069 234.104 44.4206 234.253 44.5056C234.403 44.5906 234.569 44.6452 234.74 44.6663C234.911 44.6875 235.085 44.6747 235.251 44.6287C235.417 44.5828 235.572 44.5045 235.708 44.3985C235.844 44.2924 235.958 44.1606 236.043 44.0106C236.128 43.8607 236.182 43.6954 236.204 43.5243C236.225 43.3532 236.212 43.1796 236.166 43.0135L233.635 43.7135ZM226.1 25.2685C225.933 25.2197 225.758 25.2046 225.586 25.224C225.413 25.2434 225.246 25.2969 225.094 25.3813C224.942 25.4658 224.808 25.5796 224.701 25.7161C224.593 25.8526 224.514 26.0091 224.467 26.1765C224.421 26.344 224.408 26.519 224.43 26.6914C224.451 26.8638 224.507 27.0303 224.593 27.181C224.68 27.3318 224.795 27.4639 224.933 27.5697C225.071 27.6754 225.228 27.7528 225.396 27.7972L226.1 25.2685ZM255.829 44.5185C256 44.4789 256.161 44.4056 256.303 44.3027C256.445 44.1998 256.565 44.0695 256.656 43.9194C256.747 43.7694 256.807 43.6026 256.832 43.429C256.857 43.2555 256.848 43.0786 256.803 42.9088C256.759 42.7391 256.681 42.5799 256.575 42.4408C256.468 42.3016 256.334 42.1852 256.182 42.0986C256.029 42.0119 255.861 41.9567 255.687 41.9362C255.512 41.9157 255.336 41.9303 255.167 41.9792L255.829 44.5185ZM238.345 47.728C238.887 49.688 237.697 51.7582 235.59 52.306L236.25 54.8452C239.71 53.9475 241.824 50.4667 240.875 47.028L238.345 47.728ZM235.59 52.306C233.469 52.8572 231.341 51.6252 230.795 49.6477L228.265 50.3477C229.21 53.769 232.804 55.7412 236.25 54.8452L235.59 52.306ZM230.795 49.6477C230.253 47.6877 231.443 45.6175 233.55 45.0697L232.89 42.5322C229.43 43.43 227.314 46.909 228.265 50.3477L230.795 49.6477ZM233.55 45.0697C235.671 44.5185 237.799 45.7505 238.345 47.728L240.875 47.028C239.93 43.6067 236.336 41.6345 232.89 42.5305L233.55 45.0697ZM236.166 43.0135L232.4 29.381L229.869 30.081L233.635 43.7135L236.166 43.0135ZM229.082 26.0945L226.1 25.2685L225.396 27.7972L228.38 28.625L229.082 26.0945ZM232.4 29.381C232.177 28.5934 231.755 27.8769 231.173 27.301C230.592 26.7251 229.872 26.3094 229.082 26.0945L228.384 28.625C229.127 28.8315 229.68 29.3967 229.869 30.081L232.4 29.381ZM239.942 48.6485L255.829 44.5185L255.169 41.9792L239.281 46.1092L239.942 48.6485Z" fill="white" fill-opacity="0.36"/>
<path d="M254.039 27.9129C253.19 24.8399 252.765 23.3034 251.519 22.6051C250.269 21.9051 248.686 22.3181 245.518 23.1424L242.158 24.0139C238.991 24.8364 237.407 25.2494 236.688 26.4604C235.967 27.6696 236.39 29.2061 237.239 32.2774L238.14 35.5376C238.989 38.6089 239.412 40.1454 240.66 40.8436C241.908 41.5436 243.492 41.1306 246.659 40.3081L250.019 39.4331C253.187 38.6106 254.77 38.1994 255.491 36.9901C255.887 36.3251 255.938 35.5621 255.761 34.4999" stroke="white" stroke-opacity="0.36" stroke-width="1.5" stroke-linecap="round"/>
</g>
<defs>
<clipPath id="clip0_91_647">
<rect x="0.5" width="1200" height="160" rx="10" fill="white"/>
</clipPath>
</defs>
</svg>
