<svg width="49" height="49" viewBox="0 0 49 49" fill="none" xmlns="http://www.w3.org/2000/svg">
<rect x="5" y="5" width="39" height="39" rx="19.5" fill="#FFC107"/>
<rect x="2.5" y="2.5" width="44" height="44" rx="22" stroke="#FFC107" stroke-opacity="0.25" stroke-width="5"/>
<path d="M18.0354 13.7931C17.6926 14.1089 17.5 14.5372 17.5 14.9837C17.5 15.4303 17.6926 15.8585 18.0354 16.1743L27.0864 24.5102L18.0354 32.8461C17.7023 33.1637 17.518 33.5891 17.5221 34.0307C17.5263 34.4722 17.7186 34.8946 18.0576 35.2068C18.3967 35.519 18.8553 35.6961 19.3347 35.7C19.8141 35.7038 20.276 35.5341 20.6208 35.2273L30.9646 25.7008C31.3074 25.385 31.5 24.9568 31.5 24.5102C31.5 24.0637 31.3074 23.6354 30.9646 23.3196L20.6208 13.7931C20.278 13.4774 19.813 13.3 19.3281 13.3C18.8433 13.3 18.3783 13.4774 18.0354 13.7931Z" fill="#ECF1F7"/>
</svg>
