<svg width="20" height="20" viewBox="0 0 20 20" fill="none" xmlns="http://www.w3.org/2000/svg">
<circle cx="10" cy="10" r="10" fill="#14213D"/>
<circle cx="9.99984" cy="9.99984" r="8.33333" fill="white"/>
<g clip-path="url(#clip0_87_227)">
<path d="M15.8673 15.8675H13.3978V12.0001C13.3978 11.0779 13.3813 9.89076 12.1134 9.89076C10.8272 9.89076 10.6304 10.8956 10.6304 11.933V15.8673H8.16104V7.9144H10.5317V9.00125H10.5649C10.8021 8.59558 11.145 8.26186 11.5569 8.03563C11.9688 7.8094 12.4343 7.69912 12.9039 7.71655C15.4069 7.71655 15.8683 9.3629 15.8683 11.5047L15.8673 15.8675ZM5.37458 6.82735C4.58311 6.82748 3.94137 6.18595 3.94124 5.39448C3.94111 4.603 4.58258 3.96127 5.37406 3.96114C6.16553 3.96095 6.80726 4.60248 6.80739 5.39395C6.80746 5.77403 6.65654 6.13858 6.38784 6.40739C6.11914 6.6762 5.75466 6.82727 5.37458 6.82735ZM6.60934 15.8676H4.13727V7.9144H6.60928V15.8675L6.60934 15.8676ZM17.0984 1.66772H2.89639C2.22516 1.66016 1.67471 2.19786 1.6665 2.86908V17.1303C1.67445 17.8019 2.22484 18.3401 2.89632 18.3331H17.0984C17.7713 18.3414 18.3239 17.8032 18.3332 17.1303V2.86798C18.3236 2.19545 17.771 1.65782 17.0984 1.66661" fill="#14213D"/>
</g>
<defs>
<clipPath id="clip0_87_227">
<rect x="1.6665" y="1.6665" width="16.6667" height="16.6667" rx="8.33333" fill="white"/>
</clipPath>
</defs>
</svg>
