<svg width="78" height="28" viewBox="0 0 78 28" fill="none" xmlns="http://www.w3.org/2000/svg">
<rect x="0.5" y="0.5" width="77" height="27" rx="13.5" stroke="#14213D"/>
<path d="M14.734 18.311C14.1187 18.9003 13.3257 19.195 12.355 19.195C11.3843 19.195 10.587 18.9003 9.963 18.311C9.34767 17.7217 9.04 16.9027 9.04 15.854V9.783H10.301V15.815C10.301 16.517 10.4787 17.0587 10.834 17.44C11.198 17.8213 11.705 18.012 12.355 18.012C13.005 18.012 13.5077 17.8213 13.863 17.44C14.2183 17.0587 14.396 16.517 14.396 15.815V9.783H15.67V15.854C15.67 16.9027 15.358 17.7217 14.734 18.311ZM23.955 11.876L22.811 12.279C22.7503 11.8803 22.5553 11.5207 22.226 11.2C21.8967 10.8707 21.4417 10.706 20.861 10.706C20.3497 10.706 19.925 10.8533 19.587 11.148C19.249 11.4427 19.08 11.8067 19.08 12.24C19.08 12.578 19.1797 12.864 19.379 13.098C19.587 13.332 19.8817 13.4923 20.263 13.579L21.641 13.878C22.4037 14.0427 22.993 14.3547 23.409 14.814C23.825 15.2647 24.033 15.815 24.033 16.465C24.033 17.2103 23.7383 17.8517 23.149 18.389C22.5597 18.9263 21.7927 19.195 20.848 19.195C19.8167 19.195 19.0063 18.9263 18.417 18.389C17.8363 17.843 17.4983 17.1973 17.403 16.452L18.625 16.062C18.677 16.6167 18.8937 17.0847 19.275 17.466C19.6563 17.8473 20.1763 18.038 20.835 18.038C21.4417 18.038 21.9097 17.8993 22.239 17.622C22.5683 17.3447 22.733 16.9937 22.733 16.569C22.733 16.2223 22.616 15.9233 22.382 15.672C22.148 15.412 21.8057 15.2343 21.355 15.139L20.042 14.853C19.3573 14.7057 18.8113 14.4153 18.404 13.982C17.9967 13.5487 17.793 12.9983 17.793 12.331C17.793 11.603 18.0877 10.966 18.677 10.42C19.275 9.86533 19.9943 9.588 20.835 9.588C21.7797 9.588 22.5033 9.81767 23.006 10.277C23.5087 10.7363 23.825 11.2693 23.955 11.876ZM27.259 17.869H29.144C30.0454 17.869 30.7907 17.57 31.38 16.972C31.978 16.374 32.277 15.5203 32.277 14.411C32.277 13.293 31.9824 12.4307 31.393 11.824C30.8124 11.2173 30.0714 10.914 29.17 10.914H27.259V17.869ZM29.183 19H25.985V9.783H29.209C30.4484 9.783 31.4884 10.1947 32.329 11.018C33.1697 11.8327 33.59 12.9637 33.59 14.411C33.59 15.8497 33.1654 16.9763 32.316 17.791C31.4667 18.597 30.4224 19 29.183 19ZM41.0065 21.08C39.3598 19.3987 38.5365 17.3317 38.5365 14.879C38.5365 12.4263 39.3598 10.3593 41.0065 8.678L41.7475 9.328C40.3088 10.94 39.5895 12.7903 39.5895 14.879C39.5895 16.9677 40.3088 18.818 41.7475 20.43L41.0065 21.08ZM46.4423 20.521H45.4283V19.169C44.5877 19.0823 43.9247 18.792 43.4393 18.298C42.954 17.7953 42.6723 17.2277 42.5943 16.595L43.8293 16.205C43.8727 16.6557 44.0287 17.05 44.2973 17.388C44.566 17.726 44.943 17.9383 45.4283 18.025V15.308L45.1033 15.243C44.4273 15.1043 43.8987 14.8313 43.5173 14.424C43.136 14.0167 42.9453 13.501 42.9453 12.877C42.9453 12.253 43.175 11.707 43.6343 11.239C44.1023 10.771 44.7003 10.4937 45.4283 10.407V9.042H46.4423V10.42C47.1617 10.5153 47.712 10.7667 48.0933 11.174C48.4833 11.5727 48.7433 12.0277 48.8733 12.539L47.7033 12.968C47.66 12.682 47.53 12.4047 47.3133 12.136C47.0967 11.8673 46.8063 11.681 46.4423 11.577V14.242L46.6373 14.281C47.348 14.4197 47.9113 14.71 48.3273 15.152C48.7433 15.594 48.9513 16.1097 48.9513 16.699C48.9513 17.3143 48.7303 17.856 48.2883 18.324C47.8463 18.792 47.231 19.0737 46.4423 19.169V20.521ZM47.6773 16.764C47.6773 16.478 47.5733 16.2223 47.3653 15.997C47.1573 15.7717 46.8497 15.6113 46.4423 15.516V18.025C46.8497 17.947 47.1573 17.7953 47.3653 17.57C47.5733 17.3447 47.6773 17.076 47.6773 16.764ZM44.2323 12.825C44.2323 13.4577 44.631 13.852 45.4283 14.008V11.538C45.0557 11.6073 44.761 11.759 44.5443 11.993C44.3363 12.227 44.2323 12.5043 44.2323 12.825ZM50.6168 8.678C52.2634 10.3593 53.0868 12.4263 53.0868 14.879C53.0868 17.3317 52.2634 19.3987 50.6168 21.08L49.8758 20.43C51.3144 18.818 52.0338 16.9677 52.0338 14.879C52.0338 12.7903 51.3144 10.94 49.8758 9.328L50.6168 8.678Z" fill="#14213D"/>
<path fill-rule="evenodd" clip-rule="evenodd" d="M61.2929 11.2929C61.6834 10.9024 62.3166 10.9024 62.7071 11.2929L66 14.5858L69.2929 11.2929C69.6834 10.9024 70.3166 10.9024 70.7071 11.2929C71.0976 11.6834 71.0976 12.3166 70.7071 12.7071L66.7071 16.7071C66.3166 17.0976 65.6834 17.0976 65.2929 16.7071L61.2929 12.7071C60.9024 12.3166 60.9024 11.6834 61.2929 11.2929Z" fill="#14213D"/>
</svg>
