<svg width="656" height="488" viewBox="0 0 656 488" fill="none" xmlns="http://www.w3.org/2000/svg">
<path d="M590.178 450.587H546.731V450.915H590.178V450.587Z" fill="#EBEBEB"/>
<path d="M434.492 454.156H423.092V454.484H434.492V454.156Z" fill="#EBEBEB"/>
<path d="M545.419 438.414H520.246V438.742H545.419V438.414Z" fill="#EBEBEB"/>
<path d="M125.473 440.618H68.8164V440.946H125.473V440.618Z" fill="#EBEBEB"/>
<path d="M145.464 440.618H137.161V440.946H145.464V440.618Z" fill="#EBEBEB"/>
<path d="M295.35 446.153H172.461V446.481H295.35V446.153Z" fill="#EBEBEB"/>
<path d="M312.731 370.975H59.4239C57.4374 370.975 55.5322 370.186 54.1275 368.781C52.7228 367.376 51.9336 365.471 51.9336 363.485V7.42474C51.9509 5.44957 52.7477 3.56119 54.1505 2.17063C55.5534 0.780074 57.4487 -7.57244e-05 59.4239 5.51287e-09H312.731C313.715 5.51288e-09 314.689 0.193742 315.597 0.570166C316.506 0.946591 317.332 1.49833 318.027 2.19387C318.723 2.88941 319.275 3.71514 319.651 4.62391C320.028 5.53268 320.221 6.50669 320.221 7.49033V363.485C320.221 364.468 320.028 365.442 319.651 366.351C319.275 367.26 318.723 368.085 318.027 368.781C317.332 369.477 316.506 370.028 315.597 370.405C314.689 370.781 313.715 370.975 312.731 370.975ZM59.4239 0.262359C57.5254 0.265827 55.7056 1.02155 54.3632 2.364C53.0207 3.70646 52.265 5.52623 52.2615 7.42474V363.485C52.265 365.383 53.0207 367.203 54.3632 368.545C55.7056 369.888 57.5254 370.643 59.4239 370.647H312.731C314.63 370.643 316.449 369.888 317.792 368.545C319.134 367.203 319.89 365.383 319.893 363.485V7.42474C319.89 5.52623 319.134 3.70646 317.792 2.364C316.449 1.02155 314.63 0.265827 312.731 0.262359H59.4239Z" fill="#EBEBEB"/>
<path d="M596.472 370.975H343.165C341.178 370.975 339.273 370.186 337.868 368.781C336.463 367.376 335.674 365.471 335.674 363.485V7.42474C335.692 5.44957 336.488 3.56119 337.891 2.17063C339.294 0.780074 341.189 -7.57244e-05 343.165 5.51287e-09H596.472C598.458 5.51289e-09 600.363 0.789158 601.768 2.19387C603.173 3.59858 603.962 5.50377 603.962 7.49033V363.485C603.962 365.471 603.173 367.376 601.768 368.781C600.363 370.186 598.458 370.975 596.472 370.975ZM343.165 0.262359C341.266 0.265827 339.446 1.02155 338.104 2.364C336.761 3.70646 336.006 5.52623 336.002 7.42474V363.485C336.006 365.383 336.761 367.203 338.104 368.545C339.446 369.888 341.266 370.643 343.165 370.647H596.472C598.37 370.643 600.19 369.888 601.533 368.545C602.875 367.203 603.631 365.383 603.634 363.485V7.42474C603.631 5.52623 602.875 3.70646 601.533 2.364C600.19 1.02155 598.37 0.265827 596.472 0.262359H343.165Z" fill="#EBEBEB"/>
<path d="M655.896 429.481H0V429.809H655.896V429.481Z" fill="#EBEBEB"/>
<path d="M529.242 215.265C547.174 201.295 570.288 199.078 588.273 185.094L564.202 161.088C546.269 175.059 523.169 177.276 505.171 191.259L529.242 215.265Z" fill="#F5F5F5"/>
<path d="M515.825 187.888C529.507 180.188 545.393 177.682 558.957 169.785C561.877 171.235 565.239 171.521 568.362 170.585L578.437 180.647C577.702 181.806 577.246 183.122 577.107 184.488C576.969 185.854 577.15 187.234 577.637 188.518C564.073 196.388 548.174 198.907 534.505 206.62C531.588 205.157 528.221 204.871 525.099 205.82L515.025 195.746C515.757 194.587 516.211 193.274 516.35 191.911C516.489 190.547 516.309 189.17 515.825 187.888Z" fill="#E6E6E6"/>
<path d="M538.572 191.076C542.403 194.906 549.132 196.69 553.671 195.116C558.21 193.542 558.721 189.095 554.891 185.265C551.06 181.434 544.397 179.716 539.792 181.237C535.188 182.759 534.742 187.245 538.572 191.076Z" fill="#FAFAFA"/>
<path d="M511.782 64.1596C524.021 74.4441 526.855 91.235 518.027 101.677L514.957 105.324C506.168 115.818 489.141 115.818 476.915 105.586C464.689 95.3541 461.856 78.5106 470.671 68.0557L473.74 64.3958C482.529 53.967 499.543 53.8752 511.782 64.1596Z" fill="#E0E0E0"/>
<path d="M518.005 101.647C526.789 91.2092 523.996 74.4056 511.767 64.1154C499.539 53.8252 482.505 53.9452 473.721 64.3833C464.938 74.8214 467.731 91.625 479.959 101.915C492.188 112.205 509.222 112.085 518.005 101.647Z" fill="#F5F5F5"/>
<path d="M514.172 98.421C521.43 89.7955 519.117 75.9059 509.006 67.3976C498.895 58.8893 484.814 58.9843 477.556 67.6098C470.298 76.2352 472.611 90.1249 482.722 98.6332C492.833 107.141 506.913 107.046 514.172 98.421Z" fill="#E0E0E0"/>
<path d="M506.43 90.8156L509.053 93.7147L507.23 95.3675L504.606 92.4685C502.529 94.1962 499.923 95.1593 497.221 95.197L495.857 91.7207C498.121 91.7359 500.33 91.018 502.153 89.6743L497.457 84.4272C494.361 85.9357 490.898 87.3656 487.619 83.745C485.231 81.1215 484.798 77.291 487.92 73.7885L485.297 70.837L487.12 69.1973L489.744 72.0963C491.45 70.7265 493.511 69.871 495.686 69.6302L497.103 73.1326C495.357 73.3461 493.688 73.976 492.236 74.9692L496.985 80.2163C500.081 78.6946 503.544 77.1992 506.836 80.8066C509.158 83.4564 509.552 87.2606 506.43 90.8156ZM494.545 81.3313L490.387 76.6745C489.816 77.2502 489.488 78.0232 489.471 78.8337C489.454 79.6443 489.749 80.4304 490.295 81.0296C491.436 82.2889 492.905 82.0135 494.545 81.3313ZM504.082 83.627C502.954 82.3152 501.458 82.5907 499.713 83.3646L503.859 87.9297C505.171 86.2506 505.105 84.7551 504.095 83.627H504.082Z" fill="#F5F5F5"/>
<path d="M573.597 279.687C581.9 296.308 577.152 315.539 562.919 322.609L557.947 325.075C543.753 332.159 525.52 324.406 517.281 307.773C509.043 291.139 513.74 271.908 527.973 264.838L532.944 262.358C547.085 255.275 565.28 263.054 573.597 279.687Z" fill="#E0E0E0"/>
<path d="M562.905 322.615C577.099 315.541 581.884 296.319 573.592 279.68C565.3 263.042 547.071 255.288 532.877 262.362C518.683 269.435 513.899 288.658 522.191 305.296C530.483 321.935 548.711 329.689 562.905 322.615Z" fill="#F5F5F5"/>
<path d="M560.304 317.403C572.034 311.558 575.987 295.67 569.133 281.917C562.279 268.164 547.214 261.754 535.484 267.599C523.754 273.445 519.801 289.333 526.655 303.086C533.509 316.839 548.574 323.249 560.304 317.403Z" fill="#E0E0E0"/>
<path d="M555.56 305.647L557.016 309.963L554.314 310.881L552.871 306.592C549.842 307.485 546.599 307.304 543.688 306.08L543.833 301.738C546.24 302.803 548.927 303.061 551.493 302.473L548.87 294.746C544.934 294.93 540.474 294.838 538.677 289.499C537.365 285.564 538.677 281.314 543.596 279.005L542.14 274.65L544.843 273.745L546.272 278.034C548.724 277.351 551.321 277.392 553.75 278.152L553.658 282.534C551.697 281.966 549.63 281.868 547.624 282.245L550.247 290.05C554.261 289.867 558.695 289.88 560.505 295.297C561.87 299.088 560.532 303.299 555.56 305.647ZM547.322 290.024L545.026 283.15C544.154 283.5 543.448 284.171 543.055 285.025C542.662 285.879 542.612 286.851 542.914 287.741C543.505 289.63 545.197 290.011 547.322 290.024ZM556.439 296.898C555.809 295.022 554.104 294.576 551.887 294.589L554.209 301.384C556.413 300.203 557.003 298.564 556.439 296.885V296.898Z" fill="#F5F5F5"/>
<path d="M199.484 83.4299L205.125 86.2502C221.286 94.2784 226.678 116.093 217.259 134.97C207.84 153.847 187.167 162.636 171.058 154.647L165.417 151.853C149.256 143.825 143.864 122.01 153.296 103.133C162.728 84.2563 183.376 75.4017 199.484 83.4299Z" fill="#E0E0E0"/>
<path d="M211.634 132.171C221.044 113.289 215.61 91.4718 199.497 83.4415C183.384 75.4113 162.693 84.2084 153.283 103.09C143.873 121.972 149.307 143.789 165.42 151.819C181.533 159.85 202.224 151.053 211.634 132.171Z" fill="#F5F5F5"/>
<path d="M206.574 129.649C214.352 114.041 209.861 96.0081 196.543 89.3706C183.224 82.7331 166.122 90.0047 158.343 105.612C150.565 121.22 155.057 139.253 168.375 145.89C181.694 152.528 198.796 145.256 206.574 129.649Z" fill="#E0E0E0"/>
<path d="M176.751 133.265L174.469 137.896L171.556 136.453L173.852 131.861C170.722 130.155 168.276 127.421 166.926 124.122L170.533 120.685C171.618 123.473 173.573 125.838 176.108 127.428L180.214 119.15C176.856 116.081 173.406 112.486 176.279 106.741C178.378 102.517 182.838 100.182 188.649 102.267L190.984 97.5974L193.883 99.0273L191.522 103.632C194.035 105.05 196.084 107.163 197.425 109.718L193.831 113.168C192.712 111.133 191.13 109.39 189.213 108.079L185.055 116.448C188.426 119.517 191.968 123.099 189.108 128.844C187.088 133.042 182.628 135.364 176.751 133.265ZM182.68 114.113L186.353 106.754C185.372 106.332 184.267 106.304 183.265 106.675C182.264 107.046 181.444 107.788 180.975 108.748C179.926 110.728 181.028 112.394 182.68 114.126V114.113ZM184.478 126.942C185.475 124.922 184.478 123.204 182.68 121.446L179.086 128.752C181.802 129.579 183.586 128.752 184.491 126.942H184.478Z" fill="#F5F5F5"/>
<path d="M144.114 273.784L148.744 272.236C162.019 267.776 176.948 276.788 182.129 292.306C187.311 307.825 180.817 323.999 167.568 328.433L162.938 329.981C149.662 334.441 134.747 325.429 129.566 309.911C124.384 294.392 130.864 278.218 144.114 273.784Z" fill="#E0E0E0"/>
<path d="M162.938 329.999C176.177 325.567 182.697 309.393 177.501 293.874C172.305 278.355 157.361 269.367 144.123 273.799C130.884 278.231 124.364 294.405 129.56 309.924C134.756 325.444 149.7 334.432 162.938 329.999Z" fill="#F5F5F5"/>
<path d="M161.306 325.124C172.25 321.46 177.64 308.092 173.346 295.265C169.052 282.439 156.699 275.011 145.755 278.675C134.811 282.339 129.421 295.707 133.715 308.534C138.009 321.36 150.362 328.788 161.306 325.124Z" fill="#E0E0E0"/>
<path d="M158.976 313.597L160.288 317.401L157.913 318.201L156.601 314.423C153.944 315.198 151.102 315.04 148.547 313.977L148.665 310.16C150.786 311.092 153.151 311.313 155.408 310.79L153.125 303.995C149.596 304.152 145.74 304.073 144.152 299.364C142.998 295.888 144.152 292.149 148.495 290.181L147.183 286.338L149.557 285.551L150.869 289.329C153.019 288.734 155.295 288.766 157.428 289.421L157.349 293.29C155.618 292.791 153.795 292.701 152.023 293.028L154.332 299.902C157.861 299.744 161.77 299.757 163.357 304.48C164.525 307.799 163.344 311.524 158.976 313.597ZM151.722 299.836L149.701 293.841C148.956 294.146 148.351 294.719 148.006 295.448C147.662 296.176 147.602 297.007 147.839 297.777C148.35 299.482 149.846 299.823 151.722 299.836ZM159.737 305.884C159.186 304.231 157.69 303.837 155.801 303.863L157.834 309.845C159.776 308.809 160.301 307.353 159.802 305.91L159.737 305.884Z" fill="#F5F5F5"/>
<path d="M106.111 228.37C139.181 232.476 165.443 254.133 198.513 258.239V208.391C165.443 204.285 139.181 182.628 106.111 178.522V228.37Z" fill="#F5F5F5"/>
<path d="M120.567 186.065C142.736 192.256 161.796 206.148 184.057 212.012C185.575 216.548 188.765 220.334 192.978 222.598V243.482C191.031 243.924 189.213 244.81 187.666 246.07C186.118 247.331 184.883 248.932 184.057 250.749C161.757 244.872 142.736 230.994 120.567 224.802C119.052 220.261 115.855 216.472 111.633 214.216V193.332C113.582 192.892 115.403 192.007 116.952 190.746C118.502 189.485 119.739 187.883 120.567 186.065Z" fill="#E6E6E6"/>
<path d="M140.833 212.956C140.833 220.906 145.976 229.721 152.312 232.79C158.648 235.86 163.777 231.793 163.777 223.857C163.777 215.921 158.648 207.092 152.312 204.023C145.976 200.953 140.833 205.007 140.833 212.956Z" fill="#FAFAFA"/>
<path d="M231.111 44.0499C245.081 61.9821 247.298 85.0959 261.282 103.081L285.301 79.0617C271.33 61.1295 269.113 38.0157 255.13 20.031L231.111 44.0499Z" fill="#F5F5F5"/>
<path d="M258.489 30.6303C266.189 44.2991 268.694 60.1981 276.591 73.762C275.135 76.6805 274.849 80.045 275.791 83.1676L265.73 93.229C264.569 92.4957 263.254 92.0428 261.887 91.9062C260.521 91.7696 259.142 91.953 257.859 92.4419C249.988 78.878 247.457 62.9791 239.756 49.2971C241.213 46.3786 241.499 43.0141 240.557 39.8915L250.631 29.8301C251.79 30.5625 253.102 31.016 254.466 31.1548C255.829 31.2937 257.206 31.1141 258.489 30.6303Z" fill="#E6E6E6"/>
<path d="M255.301 53.3766C251.47 57.207 249.686 63.871 251.261 68.4622C252.835 73.0535 257.269 73.5257 261.099 69.6953C264.929 65.8649 266.713 59.201 265.139 54.5966C263.565 49.9922 259.131 49.5331 255.301 53.3766Z" fill="#FAFAFA"/>
<path d="M327.948 488C468.418 488 582.291 481.352 582.291 473.151C582.291 464.949 468.418 458.301 327.948 458.301C187.478 458.301 73.6045 464.949 73.6045 473.151C73.6045 481.352 187.478 488 327.948 488Z" fill="#F5F5F5"/>
<path d="M506.352 277.064C503.728 274.834 501.105 272.551 498.481 270.229L490.715 263.277C489.309 262.08 488.379 260.418 488.092 258.594C487.899 257.105 488.075 255.592 488.603 254.186C489.383 252.17 490.516 250.309 491.948 248.69C494.415 245.866 497.257 243.394 500.396 241.344L503.348 244.807C501.214 247.279 499.272 249.911 497.537 252.678C496.806 253.811 496.266 255.056 495.936 256.364C495.844 256.849 495.936 257.164 495.936 257.125C495.936 257.085 495.858 256.784 495.936 256.823L498.048 258.358L500.16 259.958C501.564 261.034 502.954 262.136 504.306 263.238C507.047 265.441 509.71 267.711 512.321 270.059L506.352 277.064Z" fill="#803E3C"/>
<path d="M511.363 279.504C506.693 280.186 495.91 269.246 495.91 269.246L503.296 260.785C506.903 263.077 510.251 265.756 513.278 268.773C517.581 273.26 516.479 278.756 511.363 279.504Z" fill="#FFC107"/>
<path opacity="0.7" d="M511.363 279.504C506.693 280.186 495.91 269.246 495.91 269.246L503.296 260.785C506.903 263.077 510.251 265.756 513.278 268.773C517.581 273.26 516.479 278.756 511.363 279.504Z" fill="white"/>
<path d="M499.386 243.312L500.619 237.343L505.997 241.436C505.997 241.436 504.58 246.683 501.904 245.831L499.386 243.312Z" fill="#7F3E3B"/>
<path d="M504.738 232.948L508.161 238.025L505.997 241.436L500.619 237.343L504.738 232.948Z" fill="#7F3E3B"/>
<path opacity="0.2" d="M509.329 273.588C507.152 275.451 502.272 273.772 499.386 272.512C502.783 275.529 507.873 279.504 510.916 279.504C511.271 276.225 511.415 271.83 509.329 273.588Z" fill="black"/>
<path d="M480.326 459.338L474.305 457.147L477.624 442.652L483.645 444.829L480.326 459.338Z" fill="#7F3E3B"/>
<path d="M527.787 467.327H521.411L519.588 452.53H525.976L527.787 467.327Z" fill="#7F3E3B"/>
<path d="M520.571 466.592H528.35C528.478 466.589 528.603 466.63 528.703 466.709C528.804 466.788 528.874 466.9 528.901 467.025L530.213 472.705C530.243 472.842 530.241 472.985 530.208 473.122C530.174 473.259 530.11 473.386 530.021 473.495C529.931 473.603 529.818 473.69 529.69 473.749C529.562 473.807 529.422 473.836 529.282 473.833C526.776 473.833 524.953 473.649 521.791 473.649C519.85 473.649 513.999 473.846 511.297 473.846C508.595 473.846 508.24 471.222 509.342 470.96C514.248 469.884 517.948 468.402 519.509 467.025C519.648 466.885 519.814 466.776 519.996 466.701C520.179 466.627 520.374 466.59 520.571 466.592Z" fill="#FFC107"/>
<path d="M474.095 455.927L480.929 457.396C481.052 457.425 481.163 457.493 481.243 457.59C481.324 457.687 481.37 457.808 481.375 457.934L481.467 463.745C481.471 463.886 481.442 464.025 481.384 464.153C481.325 464.281 481.238 464.393 481.129 464.482C481.02 464.571 480.892 464.633 480.755 464.665C480.618 464.696 480.476 464.696 480.339 464.664C477.886 464.1 474.344 463.181 471.248 462.525C467.628 461.738 465.385 461.017 461.134 460.099C458.511 459.548 458.38 456.806 459.508 456.793C464.624 456.793 467.72 457.777 472.481 456.085C472.994 455.882 473.553 455.828 474.095 455.927Z" fill="#FFC107"/>
<path opacity="0.2" d="M477.624 442.652L475.918 450.129L481.94 452.307L483.645 444.843L477.624 442.652Z" fill="black"/>
<path opacity="0.2" d="M525.976 452.543H519.588L520.532 460.164H526.921L525.976 452.543Z" fill="black"/>
<path d="M546.466 273.024C543.764 280.072 541.572 287.305 539.907 294.668C538.714 299.509 537.782 304.152 537.048 308.376C535.316 318.28 534.621 325.902 534.018 328.434L500.501 321.652C500.252 284.922 511.284 267.54 511.284 267.54C514.012 267.397 516.745 267.419 519.47 267.606L521.228 267.763C526.028 268.448 530.785 269.411 535.474 270.649C536.366 270.872 537.271 271.121 538.097 271.384C540.829 272.193 543.631 272.742 546.466 273.024Z" fill="#FFC107"/>
<path opacity="0.7" d="M546.466 273.024C543.764 280.072 541.572 287.305 539.907 294.668C538.714 299.509 537.782 304.152 537.048 308.376C535.316 318.28 534.621 325.902 534.018 328.434L500.501 321.652C500.252 284.922 511.284 267.54 511.284 267.54C514.012 267.397 516.745 267.419 519.47 267.606L521.228 267.763C526.028 268.448 530.785 269.411 535.474 270.649C536.366 270.872 537.271 271.121 538.097 271.384C540.829 272.193 543.631 272.742 546.466 273.024Z" fill="white"/>
<path d="M521.713 274.729C520.401 277.261 512.53 308.534 510.471 315.303C510.72 316.811 511.048 318.333 511.441 319.868C512.517 318.556 513.658 317.244 514.839 315.998C516.282 309.439 521.818 278.218 523.274 274.965L521.713 274.729Z" fill="#FFC107"/>
<path d="M521.673 276.684L521.122 273.299L523.588 272.774L525.084 274.152L521.673 276.684Z" fill="#FFC107"/>
<path d="M537.192 254.304C535.408 258.712 532.889 266.937 535.513 270.649C533.813 271.832 531.88 272.635 529.842 273.004C527.805 273.373 525.713 273.299 523.707 272.788C519.771 271.909 520.112 269.115 521.28 267.763C526.632 267.567 527.222 263.749 527.025 260.011L537.192 254.304Z" fill="#7F3E3B"/>
<path d="M523.589 272.762C523.589 272.762 524.691 274.978 526.055 277.222C528.941 276.395 535.762 273.995 536.248 270.532C536.044 269.754 535.581 269.069 534.936 268.59C531.404 270.585 527.572 271.993 523.589 272.762Z" fill="white"/>
<path d="M523.589 272.761C522.07 273.582 520.671 274.606 519.43 275.805C517.843 274.113 520.243 268 521.096 267.449C521.943 267.068 522.888 266.962 523.798 267.147C523.798 267.147 520.781 271.397 523.589 272.761Z" fill="white"/>
<path opacity="0.2" d="M533.034 256.639L527.013 260.011C527.092 260.883 527.092 261.762 527.013 262.634C529.02 262.752 532.116 261.152 532.719 259.145C532.979 258.337 533.086 257.487 533.034 256.639Z" fill="black"/>
<path d="M525.569 238.366C523.825 240.268 522.067 245.017 525.884 244.925C529.702 244.833 528.56 235.1 525.569 238.366Z" fill="#14213D"/>
<path d="M540.222 248.861C537.887 254.751 536.824 258.319 532.784 260.378C526.71 263.487 520.204 258.24 520.728 251.76C521.201 245.922 524.926 237.33 531.59 236.858C533.064 236.767 534.537 237.052 535.871 237.685C537.204 238.318 538.356 239.278 539.218 240.477C540.08 241.676 540.625 243.074 540.8 244.54C540.976 246.006 540.777 247.492 540.222 248.861Z" fill="#7F3E3B"/>
<path d="M527.17 240.688C523.234 238.707 521.922 233.198 528.481 231.781L528.927 231.689C529.273 231.647 529.624 231.675 529.959 231.77C530.294 231.865 530.607 232.026 530.88 232.243C531.152 232.461 531.378 232.73 531.545 233.036C531.712 233.342 531.817 233.678 531.853 234.024C531.875 234.154 531.911 234.281 531.958 234.405C533.072 233.357 534.512 232.723 536.037 232.607C536.396 232.597 536.753 232.665 537.083 232.805C537.413 232.945 537.709 233.155 537.951 233.421C538.193 233.686 538.374 234 538.483 234.342C538.592 234.684 538.626 235.045 538.582 235.402C538.534 235.653 538.542 235.911 538.605 236.159C538.668 236.406 538.786 236.637 538.949 236.834C539.112 237.031 539.316 237.189 539.548 237.298C539.779 237.406 540.032 237.462 540.288 237.461C543.711 237.553 547.712 240.085 545.718 243.495C548.617 247.129 544.092 252.166 537.69 252.678C535.946 249.162 538.766 243.954 538.766 243.954C534.726 243.622 530.789 242.513 527.17 240.688Z" fill="#14213D"/>
<path d="M544.8 243.627C545.162 243.602 545.512 243.49 545.822 243.302C546.132 243.114 546.392 242.854 546.581 242.544C546.77 242.235 546.882 241.884 546.907 241.523C546.933 241.161 546.872 240.798 546.728 240.465C548.919 242.288 547.318 243.994 544.8 243.627Z" fill="#14213D"/>
<path d="M544.197 244.072C544.538 243.946 544.904 243.904 545.264 243.949C545.625 243.994 545.969 244.124 546.269 244.33C546.568 244.536 546.814 244.81 546.985 245.131C547.157 245.451 547.248 245.808 547.253 246.171C548.499 243.6 546.348 242.682 544.197 244.072Z" fill="#14213D"/>
<path d="M540.905 254.632C540.442 255.274 539.855 255.815 539.179 256.225C538.503 256.636 537.752 256.906 536.969 257.02C534.884 257.321 534.097 255.38 534.884 253.544C535.671 251.707 537.507 249.739 539.514 250.277C539.95 250.401 540.348 250.63 540.674 250.945C540.999 251.259 541.241 251.65 541.379 252.081C541.517 252.513 541.546 252.971 541.463 253.416C541.38 253.862 541.188 254.279 540.905 254.632Z" fill="#7F3E3B"/>
<path d="M474.147 447.912L484.34 451.611C484.34 451.611 492.302 416.56 496.526 397.132C498.412 389.442 500.733 381.865 503.479 374.438C507.335 363.524 511.953 351.784 515.678 342.601C519.614 332.933 522.539 326.112 522.539 326.112L500.501 321.652C500.501 321.652 483.697 370.031 479.919 389.144C475.997 409.03 474.147 447.912 474.147 447.912Z" fill="#14213D"/>
<path opacity="0.6" d="M503.479 374.438C507.336 363.524 511.953 351.784 515.679 342.601L513.973 337.354C507.664 343.165 503.728 363.262 503.479 374.438Z" fill="black"/>
<path d="M512.398 324.013C512.398 324.013 508.463 379.109 508.227 397.907C507.965 418.436 517.554 458.63 517.554 458.63H529.255C529.255 458.63 524.585 422.358 526.146 402.026C527.878 379.292 534.017 328.395 534.017 328.395L512.398 324.013Z" fill="#14213D"/>
<path d="M516.164 458.944H529.938L529.899 454.825L515.521 453.985L516.164 458.944Z" fill="#14213D"/>
<path d="M472.783 447.794L484.995 452.018L486.32 448.083L472.979 443.229L472.783 447.794Z" fill="#14213D"/>
<path d="M530.567 247.47C530.41 247.969 530.016 248.27 529.701 248.165C529.387 248.06 529.255 247.575 529.413 247.09C529.57 246.604 529.951 246.29 530.279 246.394C530.607 246.499 530.725 246.985 530.567 247.47Z" fill="#14213D"/>
<path d="M525.044 245.621C524.887 246.106 524.493 246.408 524.179 246.303C523.864 246.198 523.733 245.713 523.89 245.227C524.047 244.742 524.428 244.427 524.756 244.532C525.084 244.637 525.202 245.122 525.044 245.621Z" fill="#14213D"/>
<path d="M526.724 246.447C525.646 247.692 524.401 248.783 523.025 249.687C523.29 250.026 523.623 250.307 524.002 250.51C524.382 250.713 524.8 250.835 525.229 250.868L526.724 246.447Z" fill="#630F0F"/>
<path d="M532.85 246.263C532.797 246.257 532.747 246.235 532.707 246.2C532.668 246.165 532.639 246.118 532.627 246.067C532.513 245.701 532.314 245.366 532.048 245.091C531.781 244.815 531.454 244.606 531.092 244.479C531.053 244.47 531.017 244.454 530.985 244.43C530.953 244.406 530.926 244.376 530.907 244.342C530.887 244.307 530.875 244.269 530.87 244.229C530.866 244.19 530.87 244.15 530.882 244.112C530.901 244.036 530.948 243.971 531.014 243.929C531.08 243.888 531.16 243.873 531.236 243.889C531.695 244.042 532.111 244.301 532.451 244.645C532.79 244.99 533.044 245.409 533.191 245.87C533.216 245.945 533.211 246.027 533.176 246.098C533.142 246.169 533.081 246.224 533.007 246.25C532.958 246.274 532.902 246.278 532.85 246.263Z" fill="#14213D"/>
<path d="M523.287 242.905C523.228 242.895 523.173 242.867 523.129 242.826C523.077 242.766 523.048 242.689 523.048 242.61C523.048 242.53 523.077 242.453 523.129 242.393C523.461 242.041 523.873 241.774 524.329 241.614C524.786 241.454 525.274 241.406 525.753 241.475C525.83 241.494 525.896 241.541 525.94 241.606C525.984 241.672 526.001 241.751 525.989 241.829C525.983 241.869 525.969 241.907 525.947 241.94C525.926 241.974 525.897 242.003 525.864 242.025C525.831 242.047 525.793 242.062 525.754 242.069C525.714 242.076 525.674 242.075 525.635 242.065C525.258 242.016 524.874 242.059 524.517 242.192C524.161 242.324 523.842 242.542 523.589 242.826C523.555 242.872 523.506 242.904 523.452 242.918C523.397 242.933 523.339 242.928 523.287 242.905Z" fill="#14213D"/>
<path d="M518.46 467.707C518.024 467.735 517.591 467.62 517.226 467.379C517.113 467.282 517.024 467.158 516.97 467.018C516.915 466.879 516.895 466.728 516.912 466.579C516.913 466.491 516.936 466.406 516.98 466.33C517.023 466.254 517.086 466.191 517.161 466.146C517.869 465.792 519.942 467.051 520.178 467.195C520.193 467.219 520.201 467.246 520.201 467.274C520.201 467.302 520.193 467.329 520.178 467.353C520.172 467.38 520.16 467.405 520.141 467.426C520.123 467.447 520.099 467.462 520.073 467.471C519.545 467.606 519.004 467.686 518.46 467.707ZM517.502 466.395C517.437 466.38 517.37 466.38 517.305 466.395C517.305 466.395 517.213 466.395 517.213 466.566C517.199 466.668 517.211 466.772 517.248 466.868C517.285 466.964 517.345 467.05 517.423 467.117C518.135 467.45 518.95 467.493 519.693 467.235C519.024 466.812 518.28 466.522 517.502 466.382V466.395Z" fill="#FFC107"/>
<path d="M520.099 467.484H520.02C519.364 467.13 518.066 465.726 518.197 465.018C518.218 464.908 518.277 464.809 518.363 464.737C518.449 464.665 518.557 464.625 518.669 464.624C518.785 464.606 518.904 464.612 519.017 464.644C519.13 464.676 519.235 464.732 519.325 464.808C519.879 465.54 520.199 466.422 520.243 467.34C520.256 467.362 520.262 467.387 520.262 467.412C520.262 467.437 520.256 467.462 520.243 467.484H520.099ZM518.787 464.86H518.708C518.512 464.86 518.498 464.978 518.498 465.018C518.42 465.438 519.246 466.5 519.902 466.999C519.851 466.267 519.581 465.568 519.128 464.992C519.031 464.917 518.91 464.88 518.787 464.887V464.86Z" fill="#FFC107"/>
<path d="M473.294 456.649C472.245 456.649 470.395 456.491 469.831 455.73C469.749 455.621 469.694 455.494 469.671 455.359C469.648 455.225 469.658 455.086 469.7 454.956C469.722 454.877 469.764 454.804 469.821 454.744C469.878 454.685 469.949 454.641 470.028 454.615C470.881 454.353 473.124 456.163 473.386 456.373C473.404 456.398 473.414 456.428 473.414 456.458C473.414 456.489 473.404 456.519 473.386 456.544C473.382 456.568 473.372 456.591 473.355 456.609C473.339 456.628 473.318 456.641 473.294 456.649ZM470.159 454.904C470.127 454.916 470.099 454.935 470.076 454.96C470.053 454.985 470.036 455.015 470.028 455.048C470 455.134 469.994 455.226 470.01 455.315C470.026 455.405 470.064 455.489 470.12 455.56C470.918 456.134 471.895 456.404 472.875 456.321C472.1 455.631 471.167 455.144 470.159 454.904Z" fill="#FFC107"/>
<path d="M473.294 456.649C473.278 456.658 473.26 456.663 473.242 456.663C473.223 456.663 473.205 456.658 473.189 456.649C472.507 456.15 471.287 454.484 471.536 453.802C471.602 453.645 471.76 453.461 472.179 453.5C472.483 453.54 472.76 453.695 472.953 453.933C473.383 454.736 473.548 455.654 473.425 456.557C473.423 456.585 473.414 456.612 473.397 456.635C473.381 456.658 473.359 456.676 473.334 456.688L473.294 456.649ZM471.982 453.776C471.851 453.776 471.825 453.854 471.812 453.881C471.655 454.287 472.455 455.573 473.124 456.203C473.193 455.471 473.042 454.736 472.691 454.091C472.551 453.916 472.349 453.803 472.127 453.776H471.982Z" fill="#FFC107"/>
<path opacity="0.2" d="M542.557 276.683L538.044 278.585V281.432C538.044 281.432 538.832 287.178 541.285 289.303C542.282 285.485 543.423 281.432 544.748 277.628C544.041 277.261 543.309 276.945 542.557 276.683Z" fill="black"/>
<path d="M543.501 274.742C545.338 274.454 547.319 274.191 549.208 273.85C551.097 273.509 553.012 273.207 554.862 272.814C556.632 272.469 558.384 272.031 560.109 271.502C560.771 271.277 561.419 271.015 562.05 270.715C562.111 270.668 562.177 270.628 562.247 270.597C562.156 270.7 562.072 270.809 561.998 270.925C561.814 271.292 561.919 271.24 561.998 271.069C562.128 270.409 562.176 269.735 562.142 269.062C562.121 268.184 562.051 267.309 561.932 266.439C561.735 264.589 561.381 262.7 561.027 260.785C560.673 258.87 560.253 256.954 559.794 255.026C559.335 253.098 558.902 251.091 558.482 249.254L562.745 247.641C563.703 249.49 564.516 251.353 565.369 253.242C566.222 255.131 566.891 257.059 567.586 259.014C568.299 261.009 568.903 263.04 569.396 265.101C569.658 266.199 569.86 267.312 570 268.433C570.192 269.736 570.214 271.059 570.065 272.368C569.927 273.421 569.575 274.435 569.029 275.346C568.828 275.674 568.595 275.982 568.334 276.264C568.084 276.539 567.966 276.618 567.783 276.802C567.468 277.094 567.135 277.365 566.786 277.615C565.702 278.355 564.546 278.984 563.336 279.491C561.291 280.337 559.187 281.03 557.039 281.564C552.977 282.62 548.842 283.374 544.669 283.82L543.501 274.742Z" fill="#803E3C"/>
<path d="M539.749 283.125C543.475 285.971 557.078 283.033 557.078 283.033L554.888 271.292C550.795 271.637 546.743 272.352 542.78 273.43C536.404 275.254 535.211 279.688 539.749 283.125Z" fill="#FFC107"/>
<path opacity="0.7" d="M539.749 283.125C543.475 285.971 557.078 283.033 557.078 283.033L554.888 271.292C550.795 271.637 546.743 272.352 542.78 273.43C536.404 275.254 535.211 279.688 539.749 283.125Z" fill="white"/>
<path d="M563.375 249.097L563.834 242.918L556.501 245.699C556.501 245.699 557.289 251.038 560.174 250.946L563.375 249.097Z" fill="#7F3E3B"/>
<path d="M561.015 238.681L555.059 241.278L556.502 245.699L563.835 242.918L561.015 238.681Z" fill="#7F3E3B"/>
<path d="M523.93 252.993C525.81 252.853 527.7 252.902 529.571 253.137C529.264 253.852 528.723 254.441 528.036 254.806C527.348 255.172 526.557 255.291 525.793 255.144C525.524 255.141 525.259 255.081 525.015 254.967C524.771 254.854 524.554 254.69 524.378 254.487C524.202 254.284 524.071 254.046 523.994 253.788C523.916 253.53 523.895 253.259 523.93 252.993Z" fill="white"/>
<path d="M286.758 77.6844H301.935L325.993 348.556H310.816C307.366 348.492 304.058 347.168 301.516 344.834C298.974 342.5 297.374 339.317 297.016 335.884L275.201 90.3694C275.021 88.7556 275.188 87.122 275.69 85.5777C276.192 84.0334 277.017 82.6138 278.111 81.4134C279.204 80.2131 280.541 79.2597 282.032 78.6167C283.523 77.9736 285.134 77.6558 286.758 77.6844Z" fill="#FFC107"/>
<path d="M481.021 348.556H315.315C311.447 348.501 307.735 347.023 304.887 344.405C302.04 341.787 300.256 338.212 299.876 334.363L278.664 91.891C278.464 90.0823 278.652 88.2517 279.215 86.5214C279.779 84.7911 280.705 83.2008 281.931 81.8564C283.157 80.5121 284.656 79.4446 286.328 78.7252C287.999 78.0058 289.805 77.6509 291.624 77.6843H457.317C461.183 77.7568 464.889 79.2417 467.736 81.8588C470.583 84.476 472.373 88.0444 472.77 91.891L493.981 334.363C494.179 336.17 493.99 337.999 493.425 339.728C492.861 341.457 491.935 343.046 490.709 344.388C489.483 345.731 487.984 346.798 486.314 347.516C484.643 348.235 482.839 348.589 481.021 348.556Z" fill="#FFC107"/>
<path opacity="0.5" d="M481.021 348.556H315.315C311.447 348.501 307.735 347.023 304.887 344.405C302.04 341.787 300.256 338.212 299.876 334.363L278.664 91.891C278.464 90.0823 278.652 88.2517 279.215 86.5214C279.779 84.7911 280.705 83.2008 281.931 81.8564C283.157 80.5121 284.656 79.4446 286.328 78.7252C287.999 78.0058 289.805 77.6509 291.624 77.6843H457.317C461.183 77.7568 464.889 79.2417 467.736 81.8588C470.583 84.476 472.373 88.0444 472.77 91.891L493.981 334.363C494.179 336.17 493.99 337.999 493.425 339.728C492.861 341.457 491.935 343.046 490.709 344.388C489.483 345.731 487.984 346.798 486.314 347.516C484.643 348.235 482.839 348.589 481.021 348.556Z" fill="white"/>
<path opacity="0.2" d="M316.968 317.611H479.276L458.747 86.6177H296.438L316.968 317.611Z" fill="black"/>
<path d="M324.065 314.45H486.373L458.747 86.6177H296.438L324.065 314.45Z" fill="#FFC107"/>
<path opacity="0.8" d="M324.065 314.45H486.373L458.747 86.6177H296.438L324.065 314.45Z" fill="white"/>
<path d="M448.79 149.675H347.257C346.686 149.663 346.14 149.443 345.72 149.056C345.3 148.67 345.035 148.144 344.975 147.577C344.945 147.309 344.972 147.037 345.055 146.781C345.138 146.524 345.275 146.288 345.456 146.089C345.637 145.889 345.859 145.73 346.106 145.622C346.353 145.515 346.62 145.461 346.89 145.465H448.422C448.997 145.474 449.549 145.695 449.972 146.084C450.395 146.473 450.66 147.004 450.718 147.577C450.746 147.845 450.717 148.115 450.632 148.371C450.547 148.627 450.409 148.862 450.227 149.06C450.045 149.259 449.822 149.416 449.574 149.522C449.327 149.628 449.059 149.681 448.79 149.675Z" fill="#14213D"/>
<path d="M445.629 161.626H330.388C329.814 161.616 329.265 161.395 328.844 161.005C328.423 160.616 328.16 160.085 328.105 159.514C328.073 159.246 328.099 158.975 328.181 158.718C328.264 158.461 328.4 158.225 328.582 158.026C328.764 157.827 328.986 157.669 329.235 157.564C329.483 157.458 329.751 157.408 330.02 157.415H445.261C445.834 157.422 446.383 157.64 446.804 158.028C447.226 158.415 447.489 158.945 447.544 159.514C447.576 159.783 447.55 160.055 447.468 160.312C447.385 160.57 447.249 160.806 447.067 161.007C446.886 161.207 446.664 161.366 446.415 161.473C446.167 161.579 445.899 161.632 445.629 161.626Z" fill="#14213D"/>
<path d="M450.889 173.563H331.437C330.864 173.557 330.312 173.339 329.889 172.952C329.466 172.565 329.2 172.035 329.142 171.464C329.112 171.195 329.139 170.923 329.223 170.666C329.307 170.408 329.445 170.172 329.627 169.972C329.81 169.772 330.033 169.613 330.282 169.506C330.531 169.399 330.799 169.347 331.07 169.352H450.522C451.095 169.363 451.645 169.584 452.066 169.973C452.487 170.363 452.75 170.894 452.804 171.464C452.836 171.732 452.81 172.004 452.728 172.261C452.646 172.517 452.509 172.753 452.327 172.953C452.146 173.152 451.923 173.309 451.675 173.415C451.427 173.52 451.159 173.571 450.889 173.563Z" fill="#14213D"/>
<path d="M437.181 185.514H332.487C331.912 185.504 331.36 185.283 330.937 184.894C330.514 184.505 330.249 183.974 330.191 183.402C330.163 183.135 330.192 182.865 330.276 182.61C330.36 182.355 330.497 182.121 330.678 181.923C330.859 181.724 331.079 181.567 331.326 181.46C331.572 181.353 331.838 181.3 332.106 181.303H436.826C437.398 181.313 437.946 181.532 438.366 181.919C438.787 182.306 439.051 182.833 439.109 183.402C439.139 183.671 439.111 183.943 439.027 184.201C438.944 184.458 438.806 184.695 438.623 184.895C438.441 185.094 438.218 185.253 437.969 185.36C437.72 185.467 437.451 185.519 437.181 185.514Z" fill="#14213D"/>
<path d="M452.974 197.464H351.442C350.867 197.454 350.315 197.233 349.892 196.844C349.469 196.455 349.204 195.924 349.146 195.352C349.118 195.083 349.147 194.812 349.232 194.555C349.317 194.299 349.455 194.063 349.637 193.864C349.819 193.664 350.041 193.505 350.289 193.398C350.536 193.29 350.804 193.237 351.074 193.24H452.568C453.142 193.25 453.694 193.47 454.117 193.86C454.54 194.249 454.805 194.78 454.863 195.352C454.893 195.618 454.866 195.887 454.784 196.141C454.703 196.396 454.569 196.631 454.39 196.83C454.212 197.029 453.994 197.189 453.75 197.298C453.506 197.407 453.242 197.464 452.974 197.464Z" fill="#14213D"/>
<path d="M448.751 209.402H334.625C334.052 209.392 333.502 209.173 333.079 208.787C332.657 208.4 332.39 207.872 332.329 207.303C332.299 207.034 332.327 206.761 332.411 206.504C332.495 206.247 332.632 206.01 332.815 205.81C332.997 205.61 333.22 205.451 333.469 205.345C333.718 205.238 333.987 205.185 334.257 205.191H448.383C448.958 205.201 449.509 205.421 449.932 205.811C450.356 206.2 450.621 206.731 450.679 207.303C450.707 207.571 450.678 207.842 450.593 208.098C450.508 208.353 450.37 208.588 450.188 208.787C450.005 208.985 449.783 209.143 449.535 209.249C449.288 209.355 449.02 209.407 448.751 209.402Z" fill="#14213D"/>
<path d="M455.06 221.352H335.687C335.112 221.342 334.561 221.122 334.138 220.732C333.715 220.343 333.449 219.812 333.392 219.24C333.362 218.972 333.389 218.701 333.472 218.444C333.555 218.188 333.692 217.952 333.873 217.752C334.054 217.553 334.276 217.394 334.523 217.286C334.77 217.178 335.037 217.125 335.307 217.128H454.759C455.333 217.138 455.885 217.359 456.308 217.748C456.731 218.137 456.996 218.668 457.054 219.24C457.085 219.515 457.056 219.793 456.968 220.055C456.881 220.318 456.737 220.558 456.547 220.759C456.357 220.96 456.126 221.117 455.869 221.219C455.612 221.322 455.336 221.367 455.06 221.352Z" fill="#14213D"/>
<path d="M447.676 233.289H336.659C336.086 233.282 335.537 233.064 335.116 232.676C334.694 232.289 334.431 231.76 334.376 231.19C334.344 230.922 334.37 230.65 334.452 230.392C334.534 230.135 334.671 229.898 334.852 229.698C335.034 229.497 335.256 229.339 335.505 229.232C335.753 229.125 336.021 229.072 336.291 229.078H447.321C447.896 229.088 448.447 229.308 448.871 229.698C449.294 230.087 449.559 230.618 449.617 231.19C449.647 231.46 449.619 231.733 449.535 231.99C449.45 232.248 449.311 232.485 449.127 232.684C448.942 232.883 448.717 233.04 448.467 233.144C448.217 233.249 447.947 233.298 447.676 233.289Z" fill="#14213D"/>
<g opacity="0.3">
<path d="M448.79 149.675H347.257C346.686 149.663 346.14 149.443 345.72 149.056C345.3 148.67 345.035 148.144 344.975 147.577C344.945 147.309 344.972 147.037 345.055 146.781C345.138 146.524 345.275 146.288 345.456 146.089C345.637 145.889 345.859 145.73 346.106 145.622C346.353 145.515 346.62 145.461 346.89 145.465H448.422C448.997 145.474 449.549 145.695 449.972 146.084C450.395 146.473 450.66 147.004 450.718 147.577C450.746 147.845 450.717 148.115 450.632 148.371C450.547 148.627 450.409 148.862 450.227 149.06C450.045 149.259 449.822 149.416 449.574 149.522C449.327 149.628 449.059 149.681 448.79 149.675Z" fill="white"/>
<path d="M445.629 161.626H330.388C329.814 161.616 329.265 161.395 328.844 161.005C328.423 160.616 328.16 160.085 328.105 159.514C328.073 159.246 328.099 158.975 328.181 158.718C328.264 158.461 328.4 158.225 328.582 158.026C328.764 157.827 328.986 157.669 329.235 157.564C329.483 157.458 329.751 157.408 330.02 157.415H445.261C445.834 157.422 446.383 157.64 446.804 158.028C447.226 158.415 447.489 158.945 447.544 159.514C447.576 159.783 447.55 160.055 447.468 160.312C447.385 160.57 447.249 160.806 447.067 161.007C446.886 161.207 446.664 161.366 446.415 161.473C446.167 161.579 445.899 161.632 445.629 161.626Z" fill="white"/>
<path d="M450.889 173.563H331.437C330.864 173.557 330.312 173.339 329.889 172.952C329.466 172.565 329.2 172.035 329.142 171.464C329.112 171.195 329.139 170.923 329.223 170.666C329.307 170.408 329.445 170.172 329.627 169.972C329.81 169.772 330.033 169.613 330.282 169.506C330.531 169.399 330.799 169.347 331.07 169.352H450.522C451.095 169.363 451.645 169.584 452.066 169.973C452.487 170.363 452.75 170.894 452.804 171.464C452.836 171.732 452.81 172.004 452.728 172.261C452.646 172.517 452.509 172.753 452.327 172.953C452.146 173.152 451.923 173.309 451.675 173.415C451.427 173.52 451.159 173.571 450.889 173.563Z" fill="white"/>
<path d="M437.181 185.514H332.487C331.912 185.504 331.36 185.283 330.937 184.894C330.514 184.505 330.249 183.974 330.191 183.402C330.163 183.135 330.192 182.865 330.276 182.61C330.36 182.355 330.497 182.121 330.678 181.923C330.859 181.724 331.079 181.567 331.326 181.46C331.572 181.353 331.838 181.3 332.106 181.303H436.826C437.398 181.313 437.946 181.532 438.366 181.919C438.787 182.306 439.051 182.833 439.109 183.402C439.139 183.671 439.111 183.943 439.027 184.201C438.944 184.458 438.806 184.695 438.623 184.895C438.441 185.094 438.218 185.253 437.969 185.36C437.72 185.467 437.451 185.519 437.181 185.514Z" fill="white"/>
<path d="M452.974 197.464H351.442C350.867 197.454 350.315 197.233 349.892 196.844C349.469 196.455 349.204 195.924 349.146 195.352C349.118 195.083 349.147 194.812 349.232 194.555C349.317 194.299 349.455 194.063 349.637 193.864C349.819 193.664 350.041 193.505 350.289 193.398C350.536 193.29 350.804 193.237 351.074 193.24H452.568C453.142 193.25 453.694 193.47 454.117 193.86C454.54 194.249 454.805 194.78 454.863 195.352C454.893 195.618 454.866 195.887 454.784 196.141C454.703 196.396 454.569 196.631 454.39 196.83C454.212 197.029 453.994 197.189 453.75 197.298C453.506 197.407 453.242 197.464 452.974 197.464Z" fill="white"/>
<path d="M448.751 209.402H334.625C334.052 209.392 333.502 209.173 333.079 208.787C332.657 208.4 332.39 207.872 332.329 207.303C332.299 207.034 332.327 206.761 332.411 206.504C332.495 206.247 332.632 206.01 332.815 205.81C332.997 205.61 333.22 205.451 333.469 205.345C333.718 205.238 333.987 205.185 334.257 205.191H448.383C448.958 205.201 449.509 205.421 449.932 205.811C450.356 206.2 450.621 206.731 450.679 207.303C450.707 207.571 450.678 207.842 450.593 208.098C450.508 208.353 450.37 208.588 450.188 208.787C450.005 208.985 449.783 209.143 449.535 209.249C449.288 209.355 449.02 209.407 448.751 209.402Z" fill="white"/>
<path d="M455.06 221.352H335.687C335.112 221.342 334.561 221.122 334.138 220.732C333.715 220.343 333.449 219.812 333.392 219.24C333.362 218.972 333.389 218.701 333.472 218.444C333.555 218.188 333.692 217.952 333.873 217.752C334.054 217.553 334.276 217.394 334.523 217.286C334.77 217.178 335.037 217.125 335.307 217.128H454.759C455.333 217.138 455.885 217.359 456.308 217.748C456.731 218.137 456.996 218.668 457.054 219.24C457.085 219.515 457.056 219.793 456.968 220.055C456.881 220.318 456.737 220.558 456.547 220.759C456.357 220.96 456.126 221.117 455.869 221.219C455.612 221.322 455.336 221.367 455.06 221.352Z" fill="white"/>
<path d="M447.676 233.289H336.659C336.086 233.282 335.537 233.064 335.116 232.676C334.694 232.289 334.431 231.76 334.376 231.19C334.344 230.922 334.37 230.65 334.452 230.392C334.534 230.135 334.671 229.898 334.852 229.698C335.034 229.497 335.256 229.339 335.505 229.232C335.753 229.125 336.021 229.072 336.291 229.078H447.321C447.896 229.088 448.447 229.308 448.871 229.698C449.294 230.087 449.559 230.618 449.617 231.19C449.647 231.46 449.619 231.733 449.535 231.99C449.45 232.248 449.311 232.485 449.127 232.684C448.942 232.883 448.717 233.04 448.467 233.144C448.217 233.249 447.947 233.298 447.676 233.289Z" fill="white"/>
</g>
<path d="M453.5 297.934H417.872C417.299 297.924 416.749 297.706 416.327 297.319C415.904 296.933 415.637 296.405 415.576 295.835C415.548 295.566 415.578 295.295 415.662 295.038C415.747 294.782 415.885 294.546 416.067 294.347C416.249 294.147 416.471 293.989 416.719 293.881C416.967 293.774 417.234 293.72 417.504 293.723H453.133C453.708 293.733 454.259 293.953 454.682 294.343C455.105 294.732 455.371 295.263 455.428 295.835C455.456 296.103 455.427 296.374 455.342 296.63C455.258 296.886 455.119 297.121 454.937 297.319C454.755 297.517 454.532 297.675 454.285 297.781C454.037 297.887 453.769 297.939 453.5 297.934Z" fill="#14213D"/>
<path d="M415.274 290.654C415.203 290.569 415.149 290.471 415.116 290.366C415.083 290.26 415.072 290.149 415.083 290.039C415.094 289.928 415.127 289.822 415.18 289.725C415.233 289.627 415.305 289.542 415.392 289.473C417.911 287.624 420.639 285.446 423.263 283.268C424.067 278.913 426.171 274.902 429.297 271.764C431.343 269.993 432.865 270.203 433.783 270.701C434.087 270.853 434.349 271.078 434.545 271.354C434.742 271.631 434.868 271.952 434.912 272.289C435.239 274.912 430.019 279.95 424.876 284.279C424.772 284.987 424.835 285.71 425.06 286.391C425.158 286.655 425.339 286.88 425.575 287.034C425.811 287.187 426.091 287.261 426.372 287.243C429.258 287.427 430.832 285.931 432.34 284.436C434.059 282.77 435.817 281.065 439.044 282.639C441.877 284.042 441.943 285.446 441.785 286.653C441.761 286.792 441.761 286.934 441.785 287.073C442.584 287.458 443.457 287.664 444.343 287.676C446.038 287.867 447.752 287.544 449.261 286.749C450.77 285.953 452.004 284.722 452.804 283.216C452.915 283.042 453.089 282.918 453.29 282.869C453.49 282.82 453.701 282.85 453.88 282.954C453.99 283.004 454.088 283.076 454.169 283.165C454.25 283.255 454.312 283.36 454.351 283.474C454.39 283.588 454.406 283.709 454.397 283.829C454.388 283.949 454.355 284.066 454.3 284.174C453.352 285.956 451.888 287.41 450.1 288.346C448.312 289.283 446.282 289.657 444.278 289.421C442.074 289.145 441.011 288.765 440.447 288.109C440.268 287.862 440.145 287.58 440.086 287.281C440.027 286.982 440.034 286.673 440.106 286.377C440.198 285.695 440.264 285.171 438.414 284.252C436.564 283.334 435.371 284.095 433.626 285.8C431.881 287.506 430.045 289.276 426.437 289.04C425.809 289.023 425.201 288.819 424.689 288.455C424.177 288.091 423.786 287.582 423.565 286.994C423.404 286.6 423.303 286.184 423.263 285.761C420.508 288.004 418.016 289.919 416.52 291.008C416.415 291.068 416.3 291.107 416.18 291.121C416.06 291.136 415.939 291.126 415.822 291.093C415.706 291.06 415.598 291.005 415.504 290.929C415.41 290.854 415.331 290.76 415.274 290.654ZM432.59 272.053C431.809 272.166 431.087 272.53 430.53 273.089C428.236 275.389 426.534 278.211 425.572 281.314C430.005 277.378 433.442 273.824 433.246 272.341C433.246 272.276 433.246 272.236 433.114 272.171C432.952 272.087 432.772 272.046 432.59 272.053Z" fill="#14213D"/>
<g opacity="0.3">
<path d="M453.499 297.934H417.871C417.298 297.925 416.748 297.706 416.326 297.32C415.903 296.933 415.636 296.405 415.575 295.835C415.547 295.567 415.577 295.295 415.661 295.039C415.746 294.782 415.884 294.547 416.066 294.347C416.248 294.148 416.47 293.989 416.718 293.882C416.966 293.774 417.233 293.72 417.503 293.724H453.132C453.707 293.733 454.258 293.954 454.681 294.343C455.104 294.733 455.37 295.263 455.427 295.835C455.455 296.104 455.426 296.374 455.341 296.63C455.257 296.886 455.119 297.121 454.936 297.32C454.754 297.518 454.531 297.675 454.284 297.781C454.036 297.887 453.768 297.94 453.499 297.934Z" fill="white"/>
<path d="M415.274 290.654C415.202 290.57 415.148 290.472 415.116 290.366C415.083 290.26 415.072 290.149 415.083 290.039C415.094 289.929 415.127 289.822 415.18 289.725C415.233 289.628 415.305 289.542 415.392 289.474C417.91 287.624 420.639 285.446 423.262 283.269C424.067 278.913 426.17 274.902 429.297 271.765C431.343 269.994 432.865 270.203 433.783 270.702C434.087 270.854 434.348 271.078 434.545 271.355C434.742 271.632 434.867 271.952 434.911 272.289C435.239 274.913 430.018 279.95 424.876 284.279C424.772 284.988 424.835 285.711 425.059 286.391C425.158 286.655 425.338 286.881 425.574 287.034C425.811 287.188 426.09 287.261 426.371 287.244C429.257 287.427 430.831 285.932 432.34 284.436C434.058 282.77 435.816 281.065 439.043 282.639C441.877 284.043 441.942 285.446 441.785 286.653C441.76 286.792 441.76 286.934 441.785 287.073C442.583 287.459 443.456 287.665 444.343 287.677C446.038 287.868 447.751 287.545 449.26 286.749C450.769 285.954 452.004 284.723 452.804 283.216C452.915 283.042 453.089 282.918 453.289 282.869C453.489 282.82 453.701 282.851 453.88 282.954C453.989 283.004 454.087 283.077 454.168 283.166C454.249 283.255 454.311 283.36 454.35 283.474C454.39 283.588 454.405 283.709 454.397 283.829C454.388 283.95 454.355 284.067 454.299 284.174C453.352 285.956 451.888 287.411 450.099 288.347C448.311 289.283 446.282 289.658 444.277 289.421C442.073 289.146 441.011 288.765 440.447 288.109C440.268 287.863 440.144 287.58 440.085 287.281C440.027 286.982 440.033 286.674 440.106 286.378C440.198 285.696 440.263 285.171 438.414 284.253C436.564 283.335 435.37 284.095 433.625 285.801C431.881 287.506 430.044 289.277 426.437 289.041C425.809 289.024 425.2 288.82 424.689 288.455C424.177 288.091 423.785 287.582 423.564 286.994C423.404 286.6 423.302 286.185 423.262 285.761C420.508 288.004 418.015 289.92 416.52 291.008C416.415 291.069 416.299 291.107 416.179 291.122C416.06 291.136 415.938 291.127 415.822 291.094C415.706 291.061 415.598 291.005 415.503 290.93C415.409 290.854 415.331 290.76 415.274 290.654ZM432.589 272.053C431.809 272.167 431.086 272.53 430.53 273.089C428.235 275.389 426.533 278.212 425.571 281.314C430.005 277.379 433.442 273.824 433.245 272.342C433.245 272.276 433.245 272.237 433.114 272.171C432.952 272.087 432.771 272.047 432.589 272.053Z" fill="white"/>
</g>
<path d="M346.155 71.335H358.866L360.926 94.5275H348.215C346.1 94.4903 344.073 93.6795 342.516 92.2484C340.96 90.8174 339.981 88.8654 339.767 86.7617L339.085 79.1009C338.974 78.1131 339.076 77.1133 339.383 76.168C339.69 75.2227 340.194 74.3536 340.863 73.6187C341.532 72.8838 342.351 72.3 343.263 71.9063C344.176 71.5125 345.161 71.3177 346.155 71.335Z" fill="#14213D"/>
<path d="M402.72 94.5277H351.363C348.996 94.4854 346.726 93.577 344.983 91.9744C343.241 90.3717 342.146 88.186 341.905 85.8305L341.394 80.0324C341.277 78.926 341.396 77.8074 341.743 76.7503C342.09 75.6932 342.657 74.7217 343.407 73.8999C344.157 73.078 345.073 72.4245 346.093 71.9825C347.114 71.5404 348.218 71.3198 349.33 71.3352H400.7C403.067 71.3776 405.337 72.2859 407.08 73.8886C408.822 75.4912 409.918 77.677 410.158 80.0324L410.669 85.8305C410.786 86.9381 410.667 88.0578 410.319 89.1158C409.972 90.1738 409.403 91.146 408.652 91.968C407.9 92.7901 406.983 93.4433 405.961 93.8846C404.938 94.3258 403.834 94.545 402.72 94.5277Z" fill="#14213D"/>
<path opacity="0.5" d="M402.72 94.5277H351.363C348.996 94.4854 346.726 93.577 344.983 91.9744C343.241 90.3717 342.146 88.186 341.905 85.8305L341.394 80.0324C341.277 78.926 341.396 77.8074 341.743 76.7503C342.09 75.6932 342.657 74.7217 343.407 73.8999C344.157 73.078 345.073 72.4245 346.093 71.9825C347.114 71.5404 348.218 71.3198 349.33 71.3352H400.7C403.067 71.3776 405.337 72.2859 407.08 73.8886C408.822 75.4912 409.918 77.677 410.158 80.0324L410.669 85.8305C410.786 86.9381 410.667 88.0578 410.319 89.1158C409.972 90.1738 409.403 91.146 408.652 91.968C407.9 92.7901 406.983 93.4433 405.961 93.8846C404.938 94.3258 403.834 94.545 402.72 94.5277Z" fill="white"/>
<path d="M402.327 85.3847C402.36 85.6748 402.332 85.9688 402.242 86.2468C402.153 86.5249 402.005 86.7807 401.809 86.9969C401.613 87.2131 401.372 87.3848 401.104 87.5004C400.836 87.616 400.546 87.6729 400.254 87.6672C399.631 87.6577 399.034 87.4201 398.574 86.9994C398.115 86.5787 397.826 86.0042 397.762 85.3847C397.73 85.0939 397.761 84.7996 397.851 84.5216C397.942 84.2435 398.091 83.988 398.289 83.772C398.486 83.5561 398.727 83.3846 398.996 83.2691C399.265 83.1536 399.555 83.0967 399.847 83.1022C400.469 83.112 401.065 83.3501 401.522 83.771C401.979 84.1919 402.266 84.7663 402.327 85.3847Z" fill="#14213D"/>
<path d="M354.722 85.3847C354.755 85.6748 354.727 85.9688 354.637 86.2468C354.548 86.5249 354.4 86.7807 354.204 86.9969C354.008 87.2131 353.767 87.3848 353.499 87.5004C353.231 87.616 352.941 87.6729 352.649 87.6672C352.026 87.6577 351.429 87.4201 350.969 86.9994C350.51 86.5787 350.221 86.0042 350.157 85.3847C350.125 85.0939 350.156 84.7996 350.246 84.5216C350.337 84.2435 350.486 83.988 350.684 83.772C350.881 83.5561 351.122 83.3846 351.391 83.2691C351.66 83.1536 351.95 83.0967 352.242 83.1022C352.864 83.112 353.46 83.3501 353.917 83.771C354.374 84.1919 354.661 84.7663 354.722 85.3847Z" fill="#14213D"/>
<path d="M412.453 278.021C410.226 277.975 408.08 277.169 406.373 275.738C404.665 274.307 403.496 272.336 403.061 270.15L402.746 268.458C402.492 267.364 402.476 266.228 402.697 265.127C402.919 264.026 403.374 262.985 404.031 262.074C404.688 261.163 405.533 260.403 406.508 259.846C407.484 259.289 408.567 258.947 409.685 258.843L453.512 254.186C455.861 253.968 458.204 254.648 460.071 256.088C461.995 257.524 463.318 259.623 463.784 261.978L464.112 263.67C464.346 264.774 464.35 265.915 464.124 267.021C463.899 268.126 463.448 269.174 462.8 270.098C462.143 270.996 461.302 271.744 460.335 272.294C459.367 272.843 458.293 273.181 457.185 273.286L413.372 277.943C413.07 278.008 412.755 278.021 412.453 278.021ZM454.575 255.721C454.321 255.708 454.068 255.708 453.814 255.721L409.987 260.378C409.077 260.462 408.196 260.74 407.402 261.193C406.608 261.645 405.92 262.262 405.383 263.001C404.851 263.754 404.48 264.609 404.292 265.511C404.105 266.414 404.106 267.346 404.294 268.248L404.609 269.927C404.999 271.841 406.074 273.547 407.631 274.725C409.189 275.903 411.122 276.474 413.07 276.329L456.884 271.672C457.794 271.591 458.677 271.314 459.471 270.861C460.266 270.409 460.954 269.79 461.488 269.049C462.021 268.296 462.393 267.442 462.583 266.539C462.773 265.637 462.775 264.705 462.59 263.801L462.275 262.122C461.887 260.188 460.799 258.464 459.219 257.282C457.87 256.301 456.242 255.781 454.575 255.799V255.721Z" fill="#FFC107"/>
<path d="M284.423 264.47L283.229 262.175C282.79 261.337 282.65 260.373 282.834 259.445C283.018 258.517 283.514 257.679 284.239 257.072L286.377 255.275C287.103 254.667 287.598 253.829 287.781 252.9L289.591 243.783C289.779 242.856 289.64 241.892 289.198 241.055L287.283 237.434C286.843 236.596 286.704 235.633 286.888 234.705C287.071 233.776 287.567 232.939 288.293 232.331L291.887 229.314C292.622 228.71 293.127 227.872 293.317 226.94L296.255 212.195L285.971 210.123L275.726 208.076L272.853 222.821C272.672 223.749 272.811 224.711 273.246 225.549L275.411 229.721C275.845 230.56 275.982 231.522 275.799 232.449C275.615 233.376 275.122 234.213 274.401 234.824L271.239 237.447C270.518 238.053 270.023 238.885 269.836 239.809L268.025 248.991C267.84 249.918 267.974 250.88 268.406 251.72L269.718 254.199C270.157 255.037 270.296 256 270.113 256.929C269.929 257.857 269.433 258.694 268.708 259.302L266.727 260.968C266.001 261.575 265.505 262.413 265.322 263.341C265.138 264.269 265.277 265.233 265.717 266.071L266.517 267.619C266.956 268.457 267.096 269.42 266.912 270.348C266.728 271.277 266.232 272.114 265.507 272.722C264.781 273.329 264.284 274.165 264.098 275.093C263.912 276.021 264.048 276.984 264.484 277.824L267.002 282.665L271.462 283.544L275.922 284.436L280.094 280.92C280.82 280.313 281.317 279.476 281.503 278.549C281.689 277.621 281.553 276.657 281.117 275.817C280.678 274.979 280.538 274.016 280.722 273.088C280.906 272.16 281.402 271.322 282.127 270.714L283.439 269.599C284.162 268.984 284.654 268.141 284.833 267.208C285.012 266.275 284.867 265.31 284.423 264.47Z" fill="#14213D"/>
<path opacity="0.6" d="M284.423 264.47L283.229 262.175C282.79 261.337 282.65 260.373 282.834 259.445C283.018 258.517 283.514 257.679 284.239 257.072L286.377 255.275C287.103 254.667 287.598 253.829 287.781 252.9L289.591 243.783C289.779 242.856 289.64 241.892 289.198 241.055L287.283 237.434C286.843 236.596 286.704 235.633 286.888 234.705C287.071 233.776 287.567 232.939 288.293 232.331L291.887 229.314C292.622 228.71 293.127 227.872 293.317 226.94L296.255 212.195L285.971 210.123L275.726 208.076L272.853 222.821C272.672 223.749 272.811 224.711 273.246 225.549L275.411 229.721C275.845 230.56 275.982 231.522 275.799 232.449C275.615 233.376 275.122 234.213 274.401 234.824L271.239 237.447C270.518 238.053 270.023 238.885 269.836 239.809L268.025 248.991C267.84 249.918 267.974 250.88 268.406 251.72L269.718 254.199C270.157 255.037 270.296 256 270.113 256.929C269.929 257.857 269.433 258.694 268.708 259.302L266.727 260.968C266.001 261.575 265.505 262.413 265.322 263.341C265.138 264.269 265.277 265.233 265.717 266.071L266.517 267.619C266.956 268.457 267.096 269.42 266.912 270.348C266.728 271.277 266.232 272.114 265.507 272.722C264.781 273.329 264.284 274.165 264.098 275.093C263.912 276.021 264.048 276.984 264.484 277.824L267.002 282.665L271.462 283.544L275.922 284.436L280.094 280.92C280.82 280.313 281.317 279.476 281.503 278.549C281.689 277.621 281.553 276.657 281.117 275.817C280.678 274.979 280.538 274.016 280.722 273.088C280.906 272.16 281.402 271.322 282.127 270.714L283.439 269.599C284.162 268.984 284.654 268.141 284.833 267.208C285.012 266.275 284.867 265.31 284.423 264.47Z" fill="white"/>
<path opacity="0.2" d="M291.913 229.275C292.63 228.677 293.125 227.854 293.317 226.94L296.255 212.196L291.126 211.186L285.997 210.162L275.752 208.116L273.561 219.069L283.819 221.116L271.396 283.544L275.857 284.436L280.028 280.92C280.754 280.313 281.251 279.477 281.437 278.549C281.623 277.621 281.487 276.658 281.051 275.818C280.612 274.979 280.473 274.016 280.656 273.088C280.84 272.16 281.336 271.322 282.061 270.715L283.373 269.6C284.097 268.991 284.592 268.155 284.778 267.227C284.964 266.3 284.829 265.337 284.396 264.497L283.203 262.201C282.763 261.363 282.624 260.4 282.808 259.472C282.991 258.543 283.487 257.706 284.213 257.098L286.351 255.301C287.076 254.693 287.571 253.855 287.755 252.927L289.565 243.81C289.751 242.883 289.617 241.921 289.184 241.081L287.282 237.435C286.843 236.596 286.704 235.633 286.887 234.705C287.071 233.777 287.567 232.939 288.292 232.332L291.913 229.275Z" fill="black"/>
<path d="M317.453 192.046C314.738 188.819 302.735 182.864 296.294 181.644C289.853 180.424 276.499 181.211 272.76 183.152C264.457 187.455 259.288 202.685 267.513 209.585C270.832 212.366 283.556 215.514 289.289 216.892C295.021 218.269 307.956 219.699 312.206 218.466C322.7 215.449 323.435 199.196 317.453 192.046ZM303.469 193.358L285.104 189.711C283.793 189.449 283.596 187.796 284.894 187.468C288.83 186.484 292.857 185.999 295.258 186.471C297.658 186.943 301.187 188.937 304.44 191.364C305.542 192.164 304.755 193.62 303.417 193.358H303.469Z" fill="#14213D"/>
<path opacity="0.6" d="M317.453 192.046C314.738 188.819 302.735 182.864 296.294 181.644C289.853 180.424 276.499 181.211 272.76 183.152C264.457 187.455 259.288 202.685 267.513 209.585C270.832 212.366 283.556 215.514 289.289 216.892C295.021 218.269 307.956 219.699 312.206 218.466C322.7 215.449 323.435 199.196 317.453 192.046ZM303.469 193.358L285.104 189.711C283.793 189.449 283.596 187.796 284.894 187.468C288.83 186.484 292.857 185.999 295.258 186.471C297.658 186.943 301.187 188.937 304.44 191.364C305.542 192.164 304.755 193.62 303.417 193.358H303.469Z" fill="black"/>
<path d="M312.94 191.155C310.225 187.941 298.222 182.038 291.768 180.765C285.314 179.493 271.973 180.332 268.235 182.261C259.931 186.563 254.776 201.793 262.987 208.693C266.319 211.487 279.044 214.623 284.776 216C290.509 217.377 303.43 218.807 307.693 217.587C318.201 214.557 318.962 198.304 312.94 191.155ZM298.944 192.466L280.723 188.898C279.411 188.623 279.214 186.97 280.5 186.655C284.435 185.658 288.475 185.173 290.876 185.658C293.277 186.144 296.792 188.111 300.059 190.538C301.082 191.273 300.295 192.729 298.944 192.466Z" fill="#14213D"/>
<path d="M287.099 191.771C284.844 197.118 280.609 201.385 275.28 203.682C269.95 205.978 263.94 206.125 258.505 204.092C253.07 202.059 248.631 198.003 246.117 192.773C243.603 187.543 243.209 181.544 245.017 176.029C249.359 163.226 264.051 156.129 275.568 160.891L277.326 161.626C277.729 161.794 278.048 162.115 278.215 162.518C278.382 162.921 278.383 163.374 278.218 163.777C278.05 164.18 277.729 164.499 277.326 164.667C276.923 164.834 276.47 164.835 276.067 164.669L274.309 163.935C264.628 159.921 252.258 165.863 248.296 176.607C246.588 181.319 246.791 186.512 248.862 191.077C250.932 195.641 254.707 199.214 259.378 201.032C264.048 202.85 269.245 202.769 273.857 200.805C278.468 198.842 282.129 195.152 284.056 190.525C288.594 179.716 280.592 171.845 272.407 168.473L269.993 167.463C269.591 167.295 269.271 166.974 269.104 166.571C268.937 166.168 268.936 165.716 269.101 165.312C269.184 165.113 269.306 164.932 269.459 164.78C269.613 164.628 269.794 164.507 269.994 164.426C270.194 164.344 270.408 164.303 270.624 164.304C270.84 164.305 271.054 164.349 271.252 164.433L273.679 165.43C286.102 170.533 291.493 181.158 287.099 191.771Z" fill="#14213D"/>
<g opacity="0.5">
<path d="M287.099 191.771C284.844 197.118 280.609 201.385 275.28 203.682C269.95 205.978 263.94 206.125 258.505 204.092C253.07 202.059 248.631 198.003 246.117 192.773C243.603 187.543 243.209 181.544 245.017 176.029C249.359 163.226 264.051 156.129 275.568 160.891L277.326 161.626C277.729 161.794 278.048 162.115 278.215 162.518C278.382 162.921 278.383 163.374 278.218 163.777C278.05 164.18 277.729 164.499 277.326 164.667C276.923 164.834 276.47 164.835 276.067 164.669L274.309 163.935C264.628 159.921 252.258 165.863 248.296 176.607C246.588 181.319 246.791 186.512 248.862 191.077C250.932 195.641 254.707 199.214 259.378 201.032C264.048 202.85 269.245 202.769 273.857 200.805C278.468 198.842 282.129 195.152 284.056 190.525C288.594 179.716 280.592 171.845 272.407 168.473L269.993 167.463C269.591 167.295 269.271 166.974 269.104 166.571C268.937 166.168 268.936 165.716 269.101 165.312C269.184 165.113 269.306 164.932 269.459 164.78C269.613 164.628 269.794 164.507 269.994 164.426C270.194 164.344 270.408 164.303 270.624 164.304C270.84 164.305 271.054 164.349 271.252 164.433L273.679 165.43C286.102 170.533 291.493 181.158 287.099 191.771Z" fill="white"/>
</g>
<path d="M271.54 214.583C270.674 208.024 261.597 196.218 255.523 193.699C249.45 191.181 234.653 193.135 229.432 197.136C217.835 206.03 202.671 237.198 207.066 251.13C208.85 256.77 220.446 262.936 225.706 265.69C230.967 268.445 243.848 271.134 249.174 268.576C262.358 262.227 273.495 229.065 271.54 214.583ZM260.587 205.951L243.363 198.815C243.07 198.72 242.821 198.525 242.657 198.264C242.494 198.003 242.428 197.693 242.47 197.388C242.512 197.083 242.66 196.803 242.888 196.596C243.116 196.39 243.41 196.27 243.717 196.257C247.902 195.798 252.008 195.929 254.211 196.861C256.415 197.792 259.459 200.612 262.082 203.892C262.27 204.116 262.378 204.397 262.388 204.689C262.398 204.981 262.31 205.269 262.138 205.505C261.967 205.742 261.72 205.915 261.439 205.995C261.158 206.076 260.858 206.061 260.587 205.951Z" fill="#14213D"/>
<path opacity="0.6" d="M271.54 214.583C270.674 208.024 261.597 196.218 255.523 193.699C249.45 191.181 234.653 193.135 229.432 197.136C217.835 206.03 202.671 237.198 207.066 251.13C208.85 256.77 220.446 262.936 225.706 265.69C230.967 268.445 243.848 271.134 249.174 268.576C262.358 262.227 273.495 229.065 271.54 214.583ZM260.587 205.951L243.363 198.815C243.07 198.72 242.821 198.525 242.657 198.264C242.494 198.003 242.428 197.693 242.47 197.388C242.512 197.083 242.66 196.803 242.888 196.596C243.116 196.39 243.41 196.27 243.717 196.257C247.902 195.798 252.008 195.929 254.211 196.861C256.415 197.792 259.459 200.612 262.082 203.892C262.27 204.116 262.378 204.397 262.388 204.689C262.398 204.981 262.31 205.269 262.138 205.505C261.967 205.742 261.72 205.915 261.439 205.995C261.158 206.076 260.858 206.061 260.587 205.951Z" fill="black"/>
<path d="M267.383 212.838C266.53 206.279 257.439 194.473 251.366 191.968C245.292 189.462 230.495 191.391 225.274 195.391C213.691 204.285 198.513 235.454 202.974 249.385C204.758 255.026 216.367 261.191 221.614 263.959C226.861 266.727 239.756 269.39 245.082 266.832C258.187 260.483 269.285 227.321 267.383 212.838ZM256.39 204.207L239.153 197.071C238.86 196.975 238.61 196.78 238.447 196.519C238.284 196.258 238.218 195.948 238.26 195.643C238.302 195.339 238.45 195.058 238.678 194.852C238.906 194.645 239.199 194.525 239.507 194.513C243.692 194.053 247.797 194.185 250.001 195.116C252.205 196.047 255.248 198.868 257.872 202.147C258.057 202.371 258.162 202.649 258.171 202.939C258.181 203.229 258.094 203.513 257.925 203.749C257.756 203.984 257.513 204.156 257.235 204.239C256.958 204.322 256.66 204.311 256.39 204.207Z" fill="#14213D"/>
<path d="M255.353 230.469L221.417 216.446C218.909 220.58 216.767 224.925 215.016 229.433L250.775 244.243C252.704 239.795 254.236 235.186 255.353 230.469Z" fill="#FFC107"/>
<path d="M213.677 233.132C211.88 238.694 211.054 243.77 212.09 246.919C212.208 247.181 213.704 250.067 225.352 256.101C229.498 258.252 238.47 259.459 240.464 258.528C243.389 257.111 246.433 252.992 249.083 247.797L213.677 233.132Z" fill="#FFC107"/>
<path d="M256.154 226.52C256.717 223.618 256.867 220.65 256.6 217.705C256.127 214.163 249.581 205.623 246.289 204.259C242.996 202.895 232.318 204.259 229.485 206.463C227.229 208.36 225.255 210.569 223.621 213.022L256.154 226.52Z" fill="#FFC107"/>
<path d="M239.417 230.961L232.437 228.069L230.328 233.159L237.309 236.051L239.417 230.961Z" fill="white"/>
<path d="M237.972 231.768L237.028 231.374L238.064 228.868C238.179 228.653 238.247 228.416 238.265 228.172C238.282 227.929 238.248 227.685 238.165 227.455C238.082 227.226 237.952 227.016 237.783 226.84C237.614 226.664 237.41 226.525 237.184 226.433C236.958 226.341 236.715 226.297 236.471 226.305C236.227 226.312 235.987 226.371 235.767 226.476C235.548 226.582 235.352 226.733 235.194 226.919C235.036 227.105 234.919 227.322 234.85 227.557L233.814 230.062L232.87 229.669L233.906 227.163C234.027 226.803 234.22 226.472 234.474 226.19C234.728 225.908 235.038 225.682 235.383 225.524C235.728 225.367 236.102 225.282 236.482 225.276C236.861 225.269 237.238 225.341 237.589 225.486C237.939 225.631 238.256 225.847 238.52 226.119C238.784 226.392 238.989 226.717 239.122 227.072C239.255 227.427 239.314 227.806 239.294 228.185C239.275 228.564 239.178 228.935 239.009 229.275L237.972 231.768Z" fill="white"/>
<path d="M232.418 247.788L225.438 244.896L223.329 249.987L230.31 252.878L232.418 247.788Z" fill="white"/>
<path d="M226.848 246.879L225.903 246.486L226.94 243.993C227.06 243.634 227.254 243.302 227.508 243.021C227.762 242.739 228.071 242.512 228.417 242.355C228.762 242.197 229.136 242.113 229.515 242.106C229.895 242.099 230.272 242.171 230.622 242.316C230.973 242.461 231.29 242.677 231.554 242.95C231.818 243.223 232.023 243.547 232.156 243.902C232.289 244.258 232.348 244.637 232.328 245.016C232.309 245.395 232.211 245.766 232.042 246.105L231.085 245.712C231.184 245.5 231.239 245.269 231.247 245.035C231.254 244.801 231.214 244.567 231.129 244.349C231.043 244.131 230.915 243.932 230.75 243.765C230.586 243.598 230.389 243.466 230.173 243.377C229.956 243.288 229.723 243.244 229.489 243.248C229.254 243.252 229.023 243.303 228.809 243.398C228.595 243.494 228.403 243.632 228.244 243.804C228.085 243.977 227.963 244.179 227.884 244.4L226.848 246.879Z" fill="white"/>
<path d="M249.424 213.756L246.525 212.55L244.098 208.614L240.464 217.39L244.964 216.314L247.863 217.521L249.424 213.756Z" fill="white"/>
<path d="M236.726 215.698C236.068 214.097 236.07 212.301 236.731 210.701C237.392 209.102 238.658 207.828 240.254 207.158L240.779 208.47C240.152 208.73 239.582 209.111 239.102 209.591C238.623 210.072 238.242 210.642 237.983 211.269C237.723 211.896 237.59 212.569 237.59 213.248C237.591 213.927 237.725 214.599 237.985 215.226L236.726 215.698Z" fill="white"/>
<path d="M239.703 214.465C239.368 213.654 239.367 212.743 239.702 211.932C240.036 211.121 240.678 210.475 241.487 210.136L242.012 211.448C241.537 211.651 241.16 212.033 240.962 212.51C240.865 212.745 240.814 212.997 240.814 213.251C240.814 213.506 240.865 213.758 240.962 213.993L239.703 214.465Z" fill="white"/>
<path d="M107.686 446.639L189.922 449.328H371.828L450.313 445.341V428.195L440.251 413.661L412.887 403.993L378.164 413.661L364.39 426.661L208.628 428.195L178.116 405.961L154.267 397.355L119.308 406.393L110.781 422.03L105.744 437.772L107.686 446.639Z" fill="#14213D"/>
<path opacity="0.6" d="M107.686 446.639L189.922 449.328H371.828L450.313 445.341V428.195L440.251 413.661L412.887 403.993L378.164 413.661L364.39 426.661L208.628 428.195L178.116 405.961L154.267 397.355L119.308 406.393L110.781 422.03L105.744 437.772L107.686 446.639Z" fill="black"/>
<path d="M112.473 433.639C115.438 426.464 127.06 414.527 134.21 411.536C141.162 408.624 157.665 408.073 164.381 411.536C171.465 415.196 180.424 429.901 182.851 437.522C183.743 440.33 183.481 447.072 183.192 451.519L377.337 453.566C376.931 448.174 376.655 440.736 377.928 437.627C380.866 430.465 392.515 418.528 399.664 415.537C406.617 412.611 423.119 412.074 429.835 415.537C436.919 419.183 445.892 433.902 448.318 441.523C448.903 444.427 449.098 447.396 448.896 450.352C450.385 449.256 451.711 447.953 452.831 446.482L454.654 444.016C457.092 440.735 458.407 436.756 458.406 432.669V426.333C458.405 422.841 457.448 419.415 455.638 416.429L450.968 408.755V356.598C450.97 354.033 450.453 351.493 449.447 349.134L430.793 305.281C429.373 301.941 427.028 299.076 424.035 297.024C421.041 294.972 417.524 293.818 413.897 293.697C393.866 293.015 354.565 291.835 338.6 292.386C315.381 293.173 253.124 299.522 234.562 301.45C231.135 301.808 227.915 303.262 225.379 305.595L170.284 356.231L115.438 380.092C113.149 381.099 111.127 382.627 109.532 384.553C107.938 386.48 106.816 388.753 106.255 391.19L101.087 413.49L99.3685 415.733C96.8256 419.066 95.6821 423.259 96.1809 427.421L97.2434 436.106C97.7473 440.222 99.8252 443.983 103.042 446.6L103.724 447.151C106.084 449.078 108.948 450.289 111.975 450.64C111.503 445.236 111.109 436.945 112.473 433.639Z" fill="#FFC107"/>
<path d="M146.764 476.469C163.246 476.469 176.607 463.107 176.607 446.625C176.607 430.144 163.246 416.782 146.764 416.782C130.282 416.782 116.921 430.144 116.921 446.625C116.921 463.107 130.282 476.469 146.764 476.469Z" fill="#14213D"/>
<path opacity="0.5" d="M146.764 467.418C158.247 467.418 167.555 458.109 167.555 446.626C167.555 435.143 158.247 425.834 146.764 425.834C135.281 425.834 125.972 435.143 125.972 446.626C125.972 458.109 135.281 467.418 146.764 467.418Z" fill="white"/>
<g opacity="0.5">
<path d="M139.05 439.791L137.607 435.462C137.455 435 137.185 434.585 136.824 434.258C136.462 433.932 136.021 433.706 135.545 433.603C135.069 433.499 134.575 433.522 134.11 433.669C133.646 433.816 133.228 434.081 132.898 434.439C131.276 436.275 130.036 438.416 129.251 440.736C129.104 441.202 129.081 441.699 129.185 442.176C129.289 442.654 129.516 443.096 129.843 443.46C130.171 443.823 130.587 444.094 131.051 444.247C131.516 444.399 132.012 444.428 132.491 444.33L136.951 443.425C137.341 443.347 137.709 443.187 138.031 442.956C138.354 442.724 138.624 442.427 138.822 442.083C139.021 441.739 139.144 441.357 139.183 440.962C139.222 440.567 139.177 440.168 139.05 439.791Z" fill="black"/>
<path d="M148.862 436.577L151.879 433.154C152.205 432.793 152.431 432.353 152.534 431.878C152.637 431.403 152.613 430.909 152.466 430.446C152.319 429.983 152.053 429.567 151.694 429.238C151.336 428.91 150.898 428.682 150.423 428.575C148.01 428.068 145.517 428.068 143.103 428.575C142.631 428.685 142.196 428.916 141.841 429.246C141.486 429.576 141.223 429.993 141.078 430.455C140.934 430.918 140.913 431.41 141.017 431.884C141.121 432.357 141.348 432.795 141.674 433.154L144.704 436.577C144.965 436.871 145.285 437.106 145.643 437.267C146.002 437.428 146.39 437.511 146.783 437.511C147.176 437.511 147.564 437.428 147.923 437.267C148.281 437.106 148.601 436.871 148.862 436.577Z" fill="black"/>
<path d="M156.51 443.386L160.983 444.291C161.462 444.39 161.958 444.362 162.423 444.21C162.887 444.057 163.304 443.786 163.63 443.422C163.957 443.058 164.182 442.615 164.284 442.137C164.386 441.658 164.36 441.162 164.21 440.697C163.43 438.377 162.195 436.236 160.576 434.4C160.246 434.042 159.828 433.776 159.364 433.63C158.899 433.483 158.405 433.46 157.929 433.563C157.453 433.667 157.012 433.893 156.65 434.219C156.289 434.545 156.019 434.96 155.867 435.423L154.411 439.752C154.286 440.128 154.242 440.527 154.283 440.921C154.323 441.316 154.446 441.697 154.644 442.04C154.843 442.383 155.111 442.681 155.433 442.913C155.754 443.145 156.121 443.306 156.51 443.386Z" fill="black"/>
<path d="M154.411 453.474L155.867 457.803C156.019 458.265 156.289 458.68 156.65 459.007C157.012 459.333 157.453 459.559 157.929 459.662C158.405 459.766 158.899 459.743 159.364 459.596C159.828 459.449 160.246 459.184 160.576 458.826C162.195 456.99 163.43 454.849 164.21 452.529C164.36 452.064 164.386 451.567 164.284 451.089C164.182 450.611 163.957 450.168 163.63 449.804C163.304 449.44 162.887 449.168 162.423 449.016C161.958 448.863 161.462 448.835 160.983 448.935L156.51 449.84C156.121 449.92 155.754 450.081 155.433 450.313C155.111 450.545 154.843 450.842 154.644 451.185C154.446 451.529 154.323 451.91 154.283 452.305C154.242 452.699 154.286 453.097 154.411 453.474Z" fill="black"/>
<path d="M144.665 456.687L141.674 460.111C141.348 460.473 141.123 460.913 141.02 461.389C140.918 461.865 140.943 462.359 141.092 462.823C141.24 463.286 141.508 463.703 141.868 464.03C142.228 464.358 142.668 464.585 143.143 464.689C145.557 465.196 148.049 465.196 150.463 464.689C150.937 464.583 151.375 464.355 151.734 464.026C152.092 463.698 152.358 463.282 152.505 462.818C152.653 462.355 152.676 461.862 152.573 461.387C152.47 460.912 152.245 460.472 151.919 460.111L148.902 456.687C148.641 456.38 148.316 456.134 147.95 455.965C147.584 455.796 147.186 455.708 146.783 455.708C146.38 455.708 145.982 455.796 145.616 455.965C145.25 456.134 144.926 456.38 144.665 456.687Z" fill="black"/>
<path d="M137.004 449.84L132.544 448.935C132.061 448.833 131.559 448.861 131.09 449.015C130.621 449.17 130.201 449.445 129.872 449.814C129.544 450.182 129.318 450.631 129.218 451.115C129.118 451.598 129.148 452.1 129.304 452.568C130.089 454.889 131.329 457.029 132.951 458.865C133.281 459.223 133.699 459.489 134.163 459.635C134.627 459.782 135.122 459.805 135.598 459.701C136.074 459.598 136.515 459.372 136.876 459.046C137.238 458.72 137.508 458.304 137.66 457.842L139.103 453.513C139.237 453.134 139.287 452.731 139.251 452.331C139.215 451.932 139.093 451.544 138.894 451.196C138.695 450.847 138.423 450.546 138.097 450.312C137.771 450.078 137.398 449.917 137.004 449.84Z" fill="black"/>
</g>
<g opacity="0.5">
<path d="M144.061 445.34C144.837 445.34 145.465 444.712 145.465 443.937C145.465 443.161 144.837 442.533 144.061 442.533C143.286 442.533 142.658 443.161 142.658 443.937C142.658 444.712 143.286 445.34 144.061 445.34Z" fill="white"/>
<path d="M150.857 443.937C150.857 444.214 150.774 444.486 150.62 444.716C150.466 444.947 150.247 445.127 149.99 445.233C149.734 445.34 149.451 445.367 149.179 445.313C148.907 445.259 148.657 445.125 148.46 444.929C148.264 444.733 148.13 444.483 148.076 444.21C148.022 443.938 148.05 443.656 148.156 443.399C148.262 443.143 148.442 442.924 148.673 442.77C148.904 442.615 149.175 442.533 149.453 442.533C149.825 442.533 150.182 442.681 150.445 442.944C150.709 443.207 150.857 443.564 150.857 443.937Z" fill="white"/>
<path d="M145.465 449.328C145.465 449.606 145.383 449.877 145.228 450.108C145.074 450.339 144.855 450.518 144.598 450.625C144.342 450.731 144.06 450.759 143.787 450.705C143.515 450.65 143.265 450.517 143.069 450.32C142.873 450.124 142.739 449.874 142.685 449.602C142.631 449.329 142.658 449.047 142.765 448.791C142.871 448.534 143.051 448.315 143.282 448.161C143.512 448.007 143.784 447.924 144.061 447.924C144.434 447.924 144.791 448.072 145.054 448.335C145.317 448.599 145.465 448.956 145.465 449.328Z" fill="white"/>
<path d="M150.857 449.328C150.857 449.606 150.774 449.877 150.62 450.108C150.466 450.339 150.247 450.518 149.99 450.625C149.734 450.731 149.451 450.759 149.179 450.705C148.907 450.65 148.657 450.517 148.46 450.32C148.264 450.124 148.13 449.874 148.076 449.602C148.022 449.329 148.05 449.047 148.156 448.791C148.262 448.534 148.442 448.315 148.673 448.161C148.904 448.007 149.175 447.924 149.453 447.924C149.825 447.924 150.182 448.072 150.445 448.335C150.709 448.599 150.857 448.956 150.857 449.328Z" fill="white"/>
</g>
<path d="M414.186 476.469C430.668 476.469 444.029 463.107 444.029 446.625C444.029 430.144 430.668 416.782 414.186 416.782C397.704 416.782 384.343 430.144 384.343 446.625C384.343 463.107 397.704 476.469 414.186 476.469Z" fill="#14213D"/>
<path opacity="0.5" d="M414.185 467.418C425.668 467.418 434.977 458.109 434.977 446.626C434.977 435.143 425.668 425.834 414.185 425.834C402.702 425.834 393.394 435.143 393.394 446.626C393.394 458.109 402.702 467.418 414.185 467.418Z" fill="white"/>
<g opacity="0.5">
<path d="M406.525 439.791L405.082 435.462C404.93 435 404.66 434.585 404.299 434.258C403.937 433.932 403.496 433.706 403.02 433.603C402.545 433.499 402.05 433.522 401.585 433.669C401.121 433.816 400.703 434.081 400.373 434.439C398.751 436.275 397.511 438.416 396.726 440.736C396.579 441.202 396.556 441.699 396.66 442.176C396.764 442.654 396.991 443.096 397.318 443.46C397.646 443.823 398.062 444.094 398.527 444.247C398.991 444.399 399.487 444.428 399.966 444.33L404.426 443.425C404.816 443.347 405.184 443.187 405.507 442.956C405.829 442.724 406.099 442.427 406.297 442.083C406.496 441.739 406.619 441.357 406.658 440.962C406.698 440.567 406.652 440.168 406.525 439.791Z" fill="black"/>
<path d="M416.284 436.577L419.301 433.154C419.627 432.793 419.853 432.353 419.956 431.878C420.058 431.403 420.035 430.909 419.888 430.446C419.74 429.983 419.474 429.567 419.116 429.238C418.758 428.91 418.319 428.682 417.845 428.575C415.431 428.068 412.939 428.068 410.525 428.575C410.05 428.68 409.61 428.907 409.25 429.235C408.89 429.562 408.623 429.978 408.474 430.442C408.325 430.905 408.301 431.4 408.403 431.875C408.505 432.351 408.73 432.792 409.056 433.154L412.086 436.577C412.347 436.878 412.67 437.118 413.032 437.283C413.394 437.448 413.787 437.534 414.185 437.534C414.583 437.534 414.976 437.448 415.338 437.283C415.701 437.118 416.023 436.878 416.284 436.577Z" fill="black"/>
<path d="M423.933 443.386L428.406 444.291C428.874 444.374 429.355 444.337 429.804 444.183C430.254 444.029 430.656 443.762 430.974 443.409C431.292 443.056 431.514 442.627 431.62 442.164C431.726 441.701 431.713 441.219 431.58 440.762C430.801 438.442 429.565 436.301 427.947 434.466C427.617 434.108 427.199 433.842 426.734 433.695C426.27 433.549 425.775 433.526 425.299 433.629C424.823 433.733 424.383 433.959 424.021 434.285C423.659 434.611 423.389 435.026 423.237 435.489L421.781 439.818C421.668 440.194 421.634 440.589 421.683 440.979C421.732 441.368 421.862 441.743 422.064 442.08C422.267 442.416 422.538 442.706 422.86 442.931C423.182 443.156 423.547 443.311 423.933 443.386Z" fill="black"/>
<path d="M421.834 453.473L423.29 457.802C423.441 458.265 423.711 458.68 424.073 459.006C424.435 459.333 424.875 459.559 425.351 459.662C425.827 459.765 426.322 459.743 426.786 459.596C427.251 459.449 427.669 459.184 427.999 458.825C429.594 456.997 430.812 454.87 431.58 452.568C431.73 452.103 431.756 451.606 431.654 451.128C431.552 450.65 431.327 450.207 431 449.843C430.674 449.479 430.257 449.207 429.793 449.055C429.328 448.902 428.832 448.874 428.353 448.974L423.88 449.879C423.501 449.966 423.144 450.13 422.832 450.362C422.52 450.594 422.259 450.889 422.067 451.226C421.875 451.564 421.754 451.939 421.714 452.325C421.674 452.712 421.715 453.103 421.834 453.473Z" fill="black"/>
<path d="M412.086 456.687L409.056 460.111C408.73 460.473 408.505 460.913 408.403 461.389C408.301 461.865 408.325 462.359 408.474 462.823C408.623 463.286 408.89 463.702 409.25 464.03C409.61 464.357 410.05 464.585 410.525 464.689C412.939 465.196 415.431 465.196 417.845 464.689C418.319 464.583 418.758 464.354 419.116 464.026C419.474 463.698 419.74 463.281 419.888 462.818C420.035 462.355 420.058 461.861 419.956 461.386C419.853 460.911 419.627 460.472 419.301 460.111L416.284 456.687C416.023 456.387 415.701 456.146 415.338 455.981C414.976 455.816 414.583 455.731 414.185 455.731C413.787 455.731 413.394 455.816 413.032 455.981C412.67 456.146 412.347 456.387 412.086 456.687Z" fill="black"/>
<path d="M404.426 449.84L399.966 448.935C399.487 448.837 398.991 448.865 398.527 449.018C398.062 449.171 397.646 449.442 397.318 449.805C396.991 450.168 396.764 450.611 396.66 451.088C396.556 451.566 396.579 452.063 396.726 452.529C397.511 454.849 398.751 456.99 400.373 458.826C400.703 459.184 401.121 459.449 401.585 459.596C402.05 459.743 402.545 459.766 403.02 459.662C403.496 459.559 403.937 459.333 404.299 459.006C404.66 458.68 404.93 458.265 405.082 457.802L406.525 453.473C406.652 453.097 406.698 452.698 406.658 452.303C406.619 451.908 406.496 451.526 406.297 451.182C406.099 450.838 405.829 450.541 405.507 450.309C405.184 450.078 404.816 449.918 404.426 449.84Z" fill="black"/>
</g>
<g opacity="0.5">
<path d="M412.886 443.937C412.886 444.214 412.804 444.486 412.65 444.716C412.496 444.947 412.276 445.127 412.02 445.233C411.763 445.34 411.481 445.367 411.209 445.313C410.937 445.259 410.687 445.125 410.49 444.929C410.294 444.733 410.16 444.483 410.106 444.21C410.052 443.938 410.08 443.656 410.186 443.399C410.292 443.143 410.472 442.924 410.703 442.77C410.934 442.615 411.205 442.533 411.483 442.533C411.855 442.533 412.212 442.681 412.475 442.944C412.738 443.207 412.886 443.564 412.886 443.937Z" fill="white"/>
<path d="M416.875 445.34C417.65 445.34 418.278 444.712 418.278 443.937C418.278 443.161 417.65 442.533 416.875 442.533C416.1 442.533 415.471 443.161 415.471 443.937C415.471 444.712 416.1 445.34 416.875 445.34Z" fill="white"/>
<path d="M412.886 449.328C412.886 449.606 412.804 449.877 412.65 450.108C412.496 450.339 412.276 450.518 412.02 450.625C411.763 450.731 411.481 450.759 411.209 450.705C410.937 450.65 410.687 450.517 410.49 450.32C410.294 450.124 410.16 449.874 410.106 449.602C410.052 449.329 410.08 449.047 410.186 448.791C410.292 448.534 410.472 448.315 410.703 448.161C410.934 448.007 411.205 447.924 411.483 447.924C411.855 447.924 412.212 448.072 412.475 448.335C412.738 448.599 412.886 448.956 412.886 449.328Z" fill="white"/>
<path d="M418.278 449.328C418.278 449.606 418.196 449.877 418.042 450.108C417.888 450.339 417.668 450.518 417.412 450.625C417.155 450.731 416.873 450.759 416.601 450.705C416.329 450.65 416.079 450.517 415.882 450.32C415.686 450.124 415.552 449.874 415.498 449.602C415.444 449.329 415.472 449.047 415.578 448.791C415.684 448.534 415.864 448.315 416.095 448.161C416.326 448.007 416.597 447.924 416.875 447.924C417.247 447.924 417.604 448.072 417.867 448.335C418.131 448.599 418.278 448.956 418.278 449.328Z" fill="white"/>
</g>
<path d="M223.674 314.083C224.69 313.15 225.298 311.855 225.367 310.478C225.435 309.101 224.959 307.752 224.041 306.723L170.153 356.217L168.579 356.899C168.684 357.031 168.762 357.162 168.88 357.293C169.822 358.317 171.131 358.926 172.521 358.985C173.911 359.044 175.267 358.548 176.292 357.608L223.674 314.083Z" fill="#14213D"/>
<path opacity="0.5" d="M108.289 416.783C108.205 416.783 108.122 416.766 108.045 416.732C107.968 416.699 107.899 416.649 107.842 416.588C107.786 416.526 107.742 416.453 107.715 416.374C107.688 416.294 107.678 416.21 107.685 416.127L110.191 390.625C110.2 390.536 110.229 390.45 110.276 390.373C110.323 390.296 110.387 390.231 110.462 390.182C110.538 390.133 110.623 390.101 110.712 390.089C110.802 390.078 110.892 390.086 110.978 390.114L113.261 390.875C114.639 391.31 115.806 392.243 116.534 393.492C117.262 394.741 117.498 396.217 117.196 397.63L114.048 412.191C113.768 413.505 113.041 414.681 111.991 415.519C110.94 416.356 109.632 416.803 108.289 416.783Z" fill="white"/>
<g opacity="0.2">
<path d="M122.495 399.939C122.49 399.681 122.536 399.424 122.63 399.183C122.724 398.942 122.864 398.723 123.043 398.536C123.222 398.35 123.437 398.201 123.673 398.097C123.91 397.993 124.165 397.937 124.423 397.932L436.197 391.885C436.717 391.881 437.218 392.081 437.593 392.441C437.968 392.801 438.187 393.294 438.204 393.813C438.211 394.336 438.011 394.841 437.647 395.217C437.283 395.593 436.786 395.81 436.263 395.82L124.502 401.868C124.243 401.875 123.986 401.83 123.744 401.737C123.503 401.643 123.282 401.503 123.095 401.323C122.909 401.144 122.759 400.929 122.656 400.691C122.553 400.454 122.498 400.198 122.495 399.939Z" fill="white"/>
</g>
<path d="M319.304 363.091L377.324 362.081C378.806 362.056 380.265 361.715 381.604 361.081C382.943 360.447 384.132 359.535 385.09 358.405C386.049 357.275 386.755 355.954 387.162 354.529C387.569 353.104 387.668 351.609 387.451 350.144L381.732 311.105C381.565 309.998 381.013 308.986 380.173 308.247C379.333 307.508 378.259 307.089 377.14 307.064C367.079 306.828 356.991 306.658 348.976 306.658C345.041 306.658 341.722 306.658 339.059 306.789C333.812 306.973 325.535 307.563 315.84 308.376C314.712 308.468 313.654 308.962 312.859 309.769C312.065 310.576 311.586 311.641 311.511 312.771L308.796 351.954C308.696 353.389 308.895 354.829 309.379 356.184C309.864 357.538 310.623 358.777 311.611 359.824C312.598 360.87 313.791 361.701 315.115 362.263C316.439 362.825 317.865 363.107 319.304 363.091Z" fill="#14213D"/>
<path d="M435.725 353.961L417.36 310.934C417.017 310.12 416.448 309.422 415.72 308.923C414.993 308.423 414.137 308.142 413.254 308.113C410.04 308.009 405.948 307.864 401.33 307.733C400.636 307.71 399.946 307.84 399.308 308.113C398.67 308.387 398.1 308.797 397.638 309.315C397.177 309.833 396.834 310.447 396.636 311.112C396.437 311.777 396.387 312.477 396.49 313.164L402.327 352.518C402.715 355.013 403.99 357.284 405.918 358.916C407.845 360.547 410.296 361.428 412.822 361.398L430.714 361.097C431.899 361.105 433.053 360.724 434.001 360.013C434.949 359.303 435.637 358.301 435.962 357.161C436.219 356.096 436.136 354.977 435.725 353.961Z" fill="#14213D"/>
<path d="M291.612 310.54C270.361 312.534 248.795 314.764 239.613 315.788C236.64 316.095 233.847 317.356 231.65 319.382L199.472 348.937C198.095 350.217 197.139 351.886 196.729 353.721C196.32 355.556 196.477 357.472 197.178 359.217C197.88 360.962 199.094 362.452 200.661 363.493C202.227 364.533 204.072 365.075 205.952 365.045L283.938 363.734C286.544 363.69 289.04 362.67 290.93 360.875C292.82 359.08 293.967 356.64 294.144 354.039L296.767 315.617C296.82 314.93 296.722 314.24 296.48 313.595C296.239 312.95 295.859 312.365 295.368 311.882C294.877 311.398 294.287 311.028 293.638 310.796C292.99 310.565 292.298 310.477 291.612 310.54Z" fill="#14213D"/>
<path d="M380.656 373.244L367.105 373.507C366.59 373.517 366.1 373.729 365.739 374.097C365.379 374.465 365.177 374.959 365.177 375.474C365.177 375.736 365.229 375.995 365.33 376.237C365.432 376.478 365.58 376.697 365.767 376.88C365.954 377.063 366.175 377.207 366.419 377.304C366.662 377.4 366.922 377.447 367.184 377.442L380.735 377.18C381.25 377.169 381.74 376.958 382.101 376.59C382.461 376.222 382.663 375.727 382.663 375.212C382.663 374.95 382.611 374.691 382.509 374.45C382.408 374.208 382.26 373.99 382.073 373.807C381.886 373.623 381.664 373.479 381.421 373.383C381.178 373.286 380.918 373.239 380.656 373.244Z" fill="#14213D"/>
<path d="M285.591 377.088C285.591 376.826 285.539 376.567 285.437 376.326C285.336 376.084 285.187 375.865 285.001 375.682C284.814 375.499 284.592 375.355 284.349 375.258C284.105 375.162 283.845 375.115 283.584 375.12L270.033 375.382C269.518 375.393 269.027 375.605 268.667 375.972C268.306 376.34 268.104 376.835 268.104 377.35C268.104 377.612 268.157 377.871 268.258 378.112C268.359 378.354 268.508 378.572 268.695 378.756C268.882 378.939 269.103 379.083 269.346 379.179C269.59 379.276 269.85 379.323 270.112 379.318L283.662 379.055C284.178 379.048 284.671 378.838 285.032 378.469C285.393 378.1 285.594 377.604 285.591 377.088Z" fill="#14213D"/>
<g opacity="0.2">
<path d="M112.474 433.639C113.919 430.56 115.801 427.706 118.062 425.165L101.651 425.48C100.543 425.496 99.4568 425.175 98.5359 424.558C97.615 423.942 96.9035 423.06 96.4961 422.03C96.0919 423.797 95.9943 425.621 96.2075 427.421L97.2701 436.105C97.7739 440.221 99.8519 443.982 103.068 446.599L103.75 447.15C106.111 449.078 108.974 450.289 112.001 450.64C111.503 445.235 111.109 436.945 112.474 433.639Z" fill="black"/>
<path d="M377.324 453.565C376.917 448.174 376.642 440.736 377.914 437.627C380.026 432.458 386.69 424.81 392.908 419.826L175.99 424.037C178.808 428.239 181.107 432.767 182.838 437.522C183.73 440.329 183.467 447.072 183.179 451.519L377.324 453.565Z" fill="black"/>
<path d="M448.279 441.522C448.864 444.426 449.058 447.395 448.856 450.351C450.346 449.255 451.671 447.952 452.791 446.481L454.615 444.015C457.052 440.734 458.368 436.755 458.367 432.668V426.332C458.365 422.84 457.408 419.415 455.599 416.428L453.88 413.66C453.793 415.008 453.208 416.276 452.238 417.216C451.268 418.157 449.983 418.704 448.633 418.75L434.348 419.025C440.434 425.529 445.169 433.176 448.279 441.522Z" fill="black"/>
</g>
<g opacity="0.2">
<path d="M195.077 435.2C195.077 434.504 195.353 433.837 195.845 433.345C196.337 432.853 197.004 432.577 197.7 432.577L364.678 429.284C365.374 429.284 366.041 429.56 366.533 430.052C367.025 430.544 367.302 431.212 367.302 431.908C367.302 432.603 367.025 433.271 366.533 433.763C366.041 434.255 365.374 434.531 364.678 434.531L197.622 437.771C196.948 437.751 196.309 437.473 195.835 436.994C195.361 436.516 195.09 435.873 195.077 435.2Z" fill="white"/>
</g>
<path opacity="0.6" d="M208.641 340.462L199.458 348.884C198.061 350.162 197.087 351.836 196.667 353.682C196.246 355.528 196.399 357.458 197.105 359.215C197.811 360.972 199.036 362.471 200.617 363.513C202.198 364.555 204.059 365.089 205.952 365.045H208.667L208.641 340.462Z" fill="black"/>
<path d="M221.181 342.653H216.55C215.437 342.653 214.369 343.095 213.582 343.883C212.795 344.67 212.353 345.738 212.353 346.851V353.305L204.639 354.8C204.173 354.889 203.752 355.139 203.45 355.505C203.148 355.872 202.984 356.332 202.986 356.807V358.631C202.985 358.963 203.064 359.291 203.219 359.586C203.373 359.88 203.597 360.133 203.872 360.32C204.146 360.508 204.463 360.626 204.793 360.663C205.124 360.7 205.458 360.655 205.767 360.533L213.127 357.686C213.594 358.385 214.26 358.927 215.039 359.243C215.817 359.558 216.673 359.633 217.495 359.457L221.863 358.486C222.524 358.336 223.114 357.966 223.538 357.437C223.962 356.908 224.194 356.252 224.198 355.574V345.631C224.198 345.237 224.12 344.846 223.968 344.482C223.816 344.118 223.593 343.788 223.312 343.511C223.031 343.234 222.698 343.016 222.333 342.868C221.967 342.721 221.575 342.648 221.181 342.653Z" fill="#FFC107"/>
<path d="M365.761 127.812C365.761 128.341 365.64 128.826 365.397 129.268C365.154 129.701 364.782 130.052 364.279 130.321C363.776 130.59 363.152 130.724 362.407 130.724H361.029V134H358.806V124.874H362.407C363.135 124.874 363.75 125 364.253 125.251C364.756 125.502 365.133 125.849 365.384 126.291C365.635 126.733 365.761 127.24 365.761 127.812ZM362.238 128.956C362.663 128.956 362.979 128.856 363.187 128.657C363.395 128.458 363.499 128.176 363.499 127.812C363.499 127.448 363.395 127.166 363.187 126.967C362.979 126.768 362.663 126.668 362.238 126.668H361.029V128.956H362.238ZM369.362 124.874V130.334C369.362 130.88 369.497 131.3 369.765 131.595C370.034 131.89 370.428 132.037 370.948 132.037C371.468 132.037 371.867 131.89 372.144 131.595C372.422 131.3 372.56 130.88 372.56 130.334V124.874H374.783V130.321C374.783 131.136 374.61 131.825 374.263 132.388C373.917 132.951 373.449 133.376 372.859 133.662C372.279 133.948 371.629 134.091 370.909 134.091C370.19 134.091 369.544 133.952 368.972 133.675C368.409 133.389 367.963 132.964 367.633 132.401C367.304 131.829 367.139 131.136 367.139 130.321V124.874H369.362ZM381.258 134L379.36 130.555H378.827V134H376.604V124.874H380.335C381.055 124.874 381.666 125 382.168 125.251C382.68 125.502 383.061 125.849 383.312 126.291C383.564 126.724 383.689 127.21 383.689 127.747C383.689 128.354 383.516 128.895 383.169 129.372C382.831 129.849 382.329 130.187 381.661 130.386L383.767 134H381.258ZM378.827 128.982H380.205C380.613 128.982 380.916 128.882 381.115 128.683C381.323 128.484 381.427 128.202 381.427 127.838C381.427 127.491 381.323 127.218 381.115 127.019C380.916 126.82 380.613 126.72 380.205 126.72H378.827V128.982ZM384.968 129.424C384.968 128.523 385.163 127.721 385.553 127.019C385.943 126.308 386.484 125.758 387.178 125.368C387.88 124.969 388.673 124.77 389.557 124.77C390.64 124.77 391.567 125.056 392.339 125.628C393.11 126.2 393.626 126.98 393.886 127.968H391.442C391.26 127.587 391 127.296 390.662 127.097C390.332 126.898 389.955 126.798 389.531 126.798C388.846 126.798 388.291 127.036 387.867 127.513C387.442 127.99 387.23 128.627 387.23 129.424C387.23 130.221 387.442 130.858 387.867 131.335C388.291 131.812 388.846 132.05 389.531 132.05C389.955 132.05 390.332 131.95 390.662 131.751C391 131.552 391.26 131.261 391.442 130.88H393.886C393.626 131.868 393.11 132.648 392.339 133.22C391.567 133.783 390.64 134.065 389.557 134.065C388.673 134.065 387.88 133.87 387.178 133.48C386.484 133.081 385.943 132.531 385.553 131.829C385.163 131.127 384.968 130.325 384.968 129.424ZM403.411 124.874V134H401.188V130.243H397.73V134H395.507V124.874H397.73V128.449H401.188V124.874H403.411ZM410.957 132.388H407.551L407.005 134H404.678L407.98 124.874H410.554L413.856 134H411.503L410.957 132.388ZM410.385 130.672L409.254 127.331L408.136 130.672H410.385ZM418.423 134.091C417.756 134.091 417.158 133.983 416.629 133.766C416.1 133.549 415.676 133.229 415.355 132.804C415.043 132.379 414.878 131.868 414.861 131.27H417.227C417.262 131.608 417.379 131.868 417.578 132.05C417.777 132.223 418.037 132.31 418.358 132.31C418.687 132.31 418.947 132.236 419.138 132.089C419.329 131.933 419.424 131.721 419.424 131.452C419.424 131.227 419.346 131.04 419.19 130.893C419.043 130.746 418.856 130.624 418.631 130.529C418.414 130.434 418.102 130.325 417.695 130.204C417.106 130.022 416.625 129.84 416.252 129.658C415.879 129.476 415.559 129.207 415.29 128.852C415.021 128.497 414.887 128.033 414.887 127.461C414.887 126.612 415.195 125.949 415.81 125.472C416.425 124.987 417.227 124.744 418.215 124.744C419.22 124.744 420.031 124.987 420.646 125.472C421.261 125.949 421.591 126.616 421.634 127.474H419.229C419.212 127.179 419.103 126.95 418.904 126.785C418.705 126.612 418.449 126.525 418.137 126.525C417.868 126.525 417.652 126.599 417.487 126.746C417.322 126.885 417.24 127.088 417.24 127.357C417.24 127.652 417.379 127.881 417.656 128.046C417.933 128.211 418.367 128.388 418.956 128.579C419.545 128.778 420.022 128.969 420.386 129.151C420.759 129.333 421.079 129.597 421.348 129.944C421.617 130.291 421.751 130.737 421.751 131.283C421.751 131.803 421.617 132.275 421.348 132.7C421.088 133.125 420.707 133.463 420.204 133.714C419.701 133.965 419.108 134.091 418.423 134.091ZM425.602 126.655V128.501H428.579V130.217H425.602V132.219H428.969V134H423.379V124.874H428.969V126.655H425.602ZM434.091 124.874C435.053 124.874 435.894 125.065 436.613 125.446C437.332 125.827 437.887 126.365 438.277 127.058C438.676 127.743 438.875 128.536 438.875 129.437C438.875 130.33 438.676 131.123 438.277 131.816C437.887 132.509 437.328 133.047 436.6 133.428C435.881 133.809 435.044 134 434.091 134H430.672V124.874H434.091ZM433.948 132.076C434.789 132.076 435.443 131.846 435.911 131.387C436.379 130.928 436.613 130.278 436.613 129.437C436.613 128.596 436.379 127.942 435.911 127.474C435.443 127.006 434.789 126.772 433.948 126.772H432.895V132.076H433.948Z" fill="#676F74"/>
<path d="M428.028 264.853C428.088 265.43 427.939 265.931 427.581 266.357C427.229 266.776 426.649 267.027 425.84 267.111L424.507 267.249L424.807 270.144L423.902 270.238L423.182 263.305L425.42 263.073C426.203 262.991 426.816 263.119 427.259 263.455C427.71 263.79 427.966 264.256 428.028 264.853ZM425.762 266.365C426.266 266.313 426.626 266.165 426.842 265.921C427.058 265.677 427.145 265.353 427.103 264.949C427.014 264.093 426.479 263.717 425.498 263.819L424.165 263.957L424.429 266.503L425.762 266.365ZM433.799 267.652L430.775 267.966L430.378 269.565L429.424 269.664L431.214 262.511L432.259 262.403L435.471 269.036L434.516 269.135L433.799 267.652ZM433.464 266.942L431.847 263.571L430.958 267.203L433.464 266.942ZM436.947 261.875L437.668 268.808L436.762 268.902L436.042 261.969L436.947 261.875ZM440.847 261.47C441.603 261.392 442.271 261.466 442.851 261.694C443.437 261.915 443.903 262.272 444.249 262.766C444.602 263.259 444.816 263.86 444.889 264.569C444.963 265.279 444.878 265.911 444.634 266.466C444.396 267.013 444.013 267.455 443.485 267.792C442.962 268.121 442.323 268.324 441.568 268.403L439.409 268.627L438.689 261.694L440.847 261.47ZM441.49 267.657C442.385 267.564 443.044 267.258 443.466 266.738C443.887 266.212 444.053 265.521 443.964 264.665C443.875 263.803 443.566 263.155 443.038 262.721C442.517 262.285 441.812 262.114 440.924 262.206L439.671 262.336L440.237 267.787L441.49 267.657Z" fill="#FFC107"/>
</svg>
