<svg width="43" height="42" viewBox="0 0 43 42" fill="none" xmlns="http://www.w3.org/2000/svg">
<path d="M13.6354 26.7135C13.6814 26.8796 13.7596 27.0351 13.8657 27.171C13.9717 27.3069 14.1035 27.4206 14.2535 27.5056C14.4035 27.5906 14.5687 27.6452 14.7398 27.6663C14.9109 27.6875 15.0845 27.6747 15.2507 27.6287C15.4168 27.5828 15.5723 27.5045 15.7082 27.3985C15.8441 27.2924 15.9578 27.1606 16.0428 27.0106C16.1278 26.8607 16.1824 26.6954 16.2035 26.5243C16.2247 26.3532 16.2119 26.1796 16.1659 26.0135L13.6354 26.7135ZM6.09992 8.26846C5.93311 8.21974 5.75829 8.20463 5.58559 8.224C5.4129 8.24338 5.24577 8.29686 5.09391 8.38133C4.94204 8.46581 4.80847 8.5796 4.70093 8.71611C4.59339 8.85262 4.51403 9.00912 4.46745 9.17654C4.42088 9.34396 4.40801 9.51896 4.4296 9.6914C4.4512 9.86383 4.50681 10.0303 4.59323 10.181C4.67965 10.3318 4.79515 10.4639 4.93303 10.5697C5.07091 10.6754 5.22842 10.7528 5.39642 10.7972L6.09992 8.26846ZM35.8289 27.5185C35.9998 27.4789 36.1611 27.4056 36.3031 27.3027C36.4452 27.1998 36.5652 27.0695 36.656 26.9194C36.7469 26.7694 36.8067 26.6026 36.832 26.429C36.8573 26.2555 36.8476 26.0786 36.8033 25.9088C36.7591 25.7391 36.6813 25.5799 36.5746 25.4408C36.4678 25.3016 36.3342 25.1852 36.1817 25.0986C36.0292 25.0119 35.8608 24.9567 35.6866 24.9362C35.5124 24.9157 35.3359 24.9303 35.1674 24.9792L35.8289 27.5185ZM18.3447 30.728C18.8872 32.688 17.6972 34.7582 15.5902 35.306L16.2499 37.8452C19.7097 36.9475 21.8237 33.4667 20.8752 30.028L18.3447 30.728ZM15.5902 35.306C13.4692 35.8572 11.3412 34.6252 10.7952 32.6477L8.26467 33.3477C9.20967 36.769 12.8042 38.7412 16.2499 37.8452L15.5902 35.306ZM10.7952 32.6477C10.2527 30.6877 11.4427 28.6175 13.5497 28.0697L12.8899 25.5322C9.43017 26.43 7.31442 29.909 8.26467 33.3477L10.7952 32.6477ZM13.5497 28.0697C15.6707 27.5185 17.7987 28.7505 18.3447 30.728L20.8752 30.028C19.9302 26.6067 16.3357 24.6345 12.8899 25.5305L13.5497 28.0697ZM16.1659 26.0135L12.3999 12.381L9.86942 13.081L13.6354 26.7135L16.1659 26.0135ZM9.08192 9.09446L6.09992 8.26846L5.39642 10.7972L8.38017 11.625L9.08192 9.09446ZM12.3999 12.381C12.1774 11.5934 11.7549 10.8769 11.1735 10.301C10.5921 9.72509 9.87153 9.30944 9.08192 9.09446L8.38367 11.625C9.12742 11.8315 9.68042 12.3967 9.86942 13.081L12.3999 12.381ZM19.9424 31.6485L35.8289 27.5185L35.1692 24.9792L19.2809 29.1092L19.9424 31.6485Z" fill="white" fill-opacity="0.36"/>
<path d="M34.0389 10.9129C33.1902 7.83987 32.7649 6.30337 31.5189 5.60512C30.2694 4.90512 28.6856 5.31812 25.5181 6.14237L22.1582 7.01387C18.9907 7.83637 17.4069 8.24937 16.6877 9.46037C15.9667 10.6696 16.3901 12.2061 17.2389 15.2774L18.1402 18.5376C18.9889 21.6089 19.4124 23.1454 20.6602 23.8436C21.9079 24.5436 23.4917 24.1306 26.6592 23.3081L30.0192 22.4331C33.1867 21.6106 34.7704 21.1994 35.4914 19.9901C35.8869 19.3251 35.9377 18.5621 35.7609 17.4999" stroke="white" stroke-opacity="0.36" stroke-width="1.5" stroke-linecap="round"/>
</svg>
