<svg width="71" height="70" viewBox="0 0 71 70" fill="none" xmlns="http://www.w3.org/2000/svg">
<path d="M22.3927 44.5228C22.4693 44.7997 22.5997 45.0588 22.7764 45.2853C22.9532 45.5119 23.1728 45.7014 23.4228 45.843C23.6728 45.9847 23.9482 46.0757 24.2334 46.1109C24.5186 46.1461 24.8079 46.1248 25.0848 46.0482C25.3617 45.9716 25.6208 45.8412 25.8474 45.6644C26.0739 45.4877 26.2634 45.268 26.405 45.0181C26.5467 44.7681 26.6377 44.4926 26.6729 44.2075C26.7081 43.9223 26.6868 43.633 26.6102 43.3561L22.3927 44.5228ZM9.83353 13.7811C9.55551 13.6999 9.26414 13.6747 8.97632 13.707C8.68849 13.7393 8.40995 13.8284 8.15684 13.9692C7.90373 14.11 7.68111 14.2997 7.50187 14.5272C7.32264 14.7547 7.19038 15.0155 7.11275 15.2946C7.03512 15.5736 7.01368 15.8653 7.04967 16.1527C7.08565 16.44 7.17835 16.7174 7.32238 16.9687C7.46641 17.22 7.65891 17.4401 7.88871 17.6164C8.1185 17.7927 8.38102 17.9216 8.66103 17.9957L9.83353 13.7811ZM59.3819 45.8644C59.6667 45.7986 59.9354 45.6763 60.1722 45.5048C60.409 45.3333 60.609 45.1161 60.7604 44.866C60.9118 44.6159 61.0115 44.338 61.0537 44.0487C61.0959 43.7594 61.0796 43.4646 61.0059 43.1817C60.9322 42.8988 60.8026 42.6335 60.6246 42.4016C60.4466 42.1696 60.224 41.9757 59.9698 41.8313C59.7156 41.6868 59.4351 41.5948 59.1447 41.5607C58.8544 41.5265 58.5601 41.5509 58.2794 41.6323L59.3819 45.8644ZM30.2414 51.2136C31.1456 54.4803 29.1623 57.9307 25.6506 58.8436L26.7502 63.0757C32.5164 61.5794 36.0398 55.7782 34.4589 50.0469L30.2414 51.2136ZM25.6506 58.8436C22.1156 59.7623 18.5689 57.709 17.6589 54.4132L13.4414 55.5798C15.0164 61.2819 21.0073 64.569 26.7502 63.0757L25.6506 58.8436ZM17.6589 54.4132C16.7548 51.1465 18.7381 47.6961 22.2498 46.7832L21.1502 42.554C15.3839 44.0503 11.8577 49.8486 13.4414 55.5798L17.6589 54.4132ZM22.2498 46.7832C25.7848 45.8644 29.3314 47.9178 30.2414 51.2136L34.4589 50.0469C32.8839 44.3448 26.8931 41.0578 21.1502 42.5511L22.2498 46.7832ZM26.6102 43.3561L20.3335 20.6353L16.116 21.8019L22.3927 44.5228L26.6102 43.3561ZM14.8035 15.1578L9.83353 13.7811L8.66103 17.9957L13.6339 19.3753L14.8035 15.1578ZM20.3335 20.6353C19.9627 19.3227 19.2585 18.1285 18.2895 17.1686C17.3205 16.2088 16.1195 15.5161 14.8035 15.1578L13.6398 19.3753C14.8794 19.7194 15.801 20.6615 16.116 21.8019L20.3335 20.6353ZM32.9044 52.7478L59.3819 45.8644L58.2823 41.6323L31.8019 48.5157L32.9044 52.7478Z" fill="#14213D"/>
<path d="M56.3982 18.1883C54.9836 13.0666 54.2748 10.5058 52.1982 9.34204C50.1157 8.17537 47.4761 8.8637 42.1969 10.2375L36.5969 11.69C31.3178 13.0608 28.6782 13.7491 27.4794 15.7675C26.2778 17.7829 26.9836 20.3437 28.3982 25.4625L29.9002 30.8962C31.3148 36.015 32.0207 38.5758 34.1003 39.7395C36.1798 40.9062 38.8194 40.2179 44.0986 38.847L49.6986 37.3887C54.9778 36.0179 57.6173 35.3325 58.819 33.317C59.4782 32.2087 59.5628 30.937 59.2682 29.1666" stroke="#14213D" stroke-width="1.5" stroke-linecap="round"/>
</svg>
