<svg width="71" height="70" viewBox="0 0 71 70" fill="none" xmlns="http://www.w3.org/2000/svg">
<path d="M64.6665 46.6668H58.3082C58.6477 45.7315 58.8253 44.7452 58.8332 43.7502V29.1668C58.8332 26.8462 57.9113 24.6206 56.2704 22.9796C54.6294 21.3387 52.4038 20.4168 50.0832 20.4168H32.5832C30.2625 20.4168 28.0369 21.3387 26.396 22.9796C24.755 24.6206 23.8332 26.8462 23.8332 29.1668V43.7502C23.8411 44.7452 24.0186 45.7315 24.3582 46.6668H20.9165C20.143 46.6668 19.4011 46.3595 18.8541 45.8126C18.3071 45.2656 17.9998 44.5237 17.9998 43.7502V14.5835C17.9998 12.2629 17.078 10.0373 15.437 8.39631C13.7961 6.75537 11.5705 5.8335 9.24984 5.8335H6.33317C5.55962 5.8335 4.81776 6.14079 4.27078 6.68777C3.72379 7.23475 3.4165 7.97661 3.4165 8.75016C3.4165 9.52371 3.72379 10.2656 4.27078 10.8126C4.81776 11.3595 5.55962 11.6668 6.33317 11.6668H9.24984C10.0234 11.6668 10.7653 11.9741 11.3122 12.5211C11.8592 13.0681 12.1665 13.8099 12.1665 14.5835V43.7502C12.1773 45.6661 12.8166 47.5255 13.9863 49.043C15.156 50.5605 16.7914 51.652 18.6415 52.1502C18.1044 53.4643 17.895 54.8893 18.0315 56.3024C18.1681 57.7154 18.6463 59.0741 19.4251 60.261C20.2039 61.448 21.2598 62.4276 22.5017 63.1154C23.7436 63.8032 25.1342 64.1785 26.5535 64.2089C27.9728 64.2393 29.3782 63.9239 30.6484 63.29C31.9187 62.656 33.0156 61.7225 33.8445 60.57C34.6734 59.4175 35.2094 58.0806 35.4064 56.6747C35.6033 55.2688 35.4552 53.8361 34.9748 52.5002H44.7748C44.2951 53.8218 44.141 55.2396 44.3255 56.6334C44.5099 58.0272 45.0276 59.3561 45.8345 60.5075C46.6415 61.6588 47.714 62.5988 48.9613 63.2477C50.2086 63.8966 51.5938 64.2354 52.9998 64.2354C54.4058 64.2354 55.7911 63.8966 57.0384 63.2477C58.2857 62.5988 59.3582 61.6588 60.1652 60.5075C60.9721 59.3561 61.4897 58.0272 61.6742 56.6334C61.8587 55.2396 61.7045 53.8218 61.2248 52.5002H64.6665C65.44 52.5002 66.1819 52.1929 66.7289 51.6459C67.2759 51.0989 67.5832 50.357 67.5832 49.5835C67.5832 48.8099 67.2759 48.0681 66.7289 47.5211C66.1819 46.9741 65.44 46.6668 64.6665 46.6668ZM26.7498 58.3335C26.173 58.3335 25.6091 58.1624 25.1294 57.842C24.6498 57.5215 24.2759 57.0659 24.0552 56.533C23.8344 56 23.7767 55.4136 23.8892 54.8478C24.0018 54.282 24.2795 53.7623 24.6874 53.3544C25.0953 52.9465 25.615 52.6687 26.1808 52.5562C26.7466 52.4437 27.333 52.5014 27.866 52.7222C28.3989 52.9429 28.8545 53.3168 29.175 53.7964C29.4954 54.2761 29.6665 54.84 29.6665 55.4168C29.6665 56.1904 29.3592 56.9322 28.8122 57.4792C28.2652 58.0262 27.5234 58.3335 26.7498 58.3335ZM32.5832 46.6668C31.8096 46.6668 31.0678 46.3595 30.5208 45.8126C29.9738 45.2656 29.6665 44.5237 29.6665 43.7502V29.1668C29.6665 28.3933 29.9738 27.6514 30.5208 27.1044C31.0678 26.5575 31.8096 26.2502 32.5832 26.2502H50.0832C50.8567 26.2502 51.5986 26.5575 52.1456 27.1044C52.6925 27.6514 52.9998 28.3933 52.9998 29.1668V43.7502C52.9998 44.5237 52.6925 45.2656 52.1456 45.8126C51.5986 46.3595 50.8567 46.6668 50.0832 46.6668H32.5832ZM52.9998 58.3335C52.423 58.3335 51.8591 58.1624 51.3794 57.842C50.8998 57.5215 50.5259 57.0659 50.3052 56.533C50.0844 56 50.0267 55.4136 50.1392 54.8478C50.2518 54.282 50.5295 53.7623 50.9374 53.3544C51.3453 52.9465 51.865 52.6687 52.4308 52.5562C52.9966 52.4437 53.583 52.5014 54.116 52.7222C54.6489 52.9429 55.1045 53.3168 55.425 53.7964C55.7454 54.2761 55.9165 54.84 55.9165 55.4168C55.9165 56.1904 55.6092 56.9322 55.0622 57.4792C54.5153 58.0262 53.7734 58.3335 52.9998 58.3335Z" fill="#14213D"/>
</svg>
